<?xml version="1.0" encoding="UTF-8" standalone="no"?><!DOCTYPE svg PUBLIC "-//W3C//DTD SVG 1.1//EN" "http://www.w3.org/Graphics/SVG/1.1/DTD/svg11.dtd"><svg width="100%" height="100%" viewBox="0 0 2134 534" version="1.1" xmlns="http://www.w3.org/2000/svg" xmlns:xlink="http://www.w3.org/1999/xlink" xml:space="preserve" xmlns:serif="http://www.serif.com/" style="fill-rule:evenodd;clip-rule:evenodd;stroke-linejoin:round;stroke-miterlimit:2;"><g id="Plain-Black---512-x-128" serif:id="Plain Black - 512 x 128"><rect id="Black-Background" serif:id="Black Background" x="0" y="0" width="2133.33" height="533.333"/><path d="M2133.33,0l-2133.33,0l0,533.333l2133.33,0l0,-533.333Zm-7.376,7.376l0,518.581c0,0 -1982.19,0 -2118.58,0c-0,0 -0,-518.581 -0,-518.581l2118.58,-0Z" style="fill:#fff;"/><g id="DPM"><g id="White" transform="matrix(0.795413,0,0,1,-13199.1,-7.27596e-12)"><text x="18083.9px" y="392.276px" style="font-family:'SouthlandRegular', 'Southland';font-size:142.945px;fill:#fff;">in<tspan x="18127.9px " y="392.276px ">c</tspan>.</text></g><g id="Dufour"><path d="M965.875,388.445l-0.25,0l0.036,-41.585l-0.167,-0l0,-110.017l86.009,-0c15.943,-5.926 23.914,-19.752 23.914,-39.503c0,-25.677 -12.754,-41.478 -36.668,-41.478l-73.255,0l0,-43.379l74.85,0c46.19,0 76.365,31.549 76.365,84.857c0,35.552 -14.293,61.147 -36.527,74.92l39.713,74.6l-42.89,-0l-35.067,-64.761l-36.668,-0l0,64.761l-0.086,-0l-0.007,8.191l125.086,-0l0,-31.682l48.741,48.741l-48.741,48.74l0,-31.681l-164.388,-0l0,-0.724Z" style="fill:#fff;"/><path d="M1005.18,353.279l-0.001,1.772l125.086,-0l0,-31.682l48.741,48.741l-48.741,48.74l0,-31.681l-164.388,-0l0,-0.724l-0.25,0l0.036,-41.585l-0.167,-0l0,-110.017l86.009,-0c15.943,-5.926 23.914,-19.752 23.914,-39.503c0,-25.677 -12.754,-41.478 -36.668,-41.478l-73.255,0l0,-43.379l74.85,0c46.19,0 76.365,31.549 76.365,84.857c0,35.552 -14.293,61.147 -36.527,74.92l39.713,74.6l-42.89,-0l-35.067,-64.761l-36.668,-0l0,64.761l-0.086,-0l-0.005,6.408l-0.042,-0.117l-6.291,-6.291l-0,-64.761l6.424,-6.424l36.668,-0l5.649,3.365c0,-0 33.245,61.395 33.245,61.395c0,0 28.365,0 28.365,0.001l-34.686,-65.157l2.287,-8.48c20.57,-12.742 33.487,-36.569 33.487,-69.459c-0,-24.772 -6.799,-44.559 -19.176,-58.082c-12.166,-13.292 -29.667,-20.351 -50.765,-20.351c-0,0 -68.426,0 -68.426,0c0,0 0,30.531 0,30.531c0,-0 66.831,-0 66.831,-0c14.126,-0 24.868,4.879 32.166,13.337c7.047,8.167 10.926,19.92 10.926,34.565c0,22.883 -9.629,38.66 -28.099,45.524l-2.239,0.403c0,-0 -79.585,-0 -79.585,-0l0,103.593l-6.049,6.049l-0.208,0.375l6.425,-6.419l-0.031,35.88l158.208,-0l6.425,6.424c-0,-0 -0,16.172 -0,16.172c-0,-0 33.23,-33.231 33.231,-33.231c-0,-0 -33.231,-33.231 -33.231,-33.231l-0,16.172l-6.425,6.424l-125.086,-0l-6.424,-6.43l0.007,-8.191l6.418,6.425Z"/><path d="M860.682,346.86c47.387,-0 75.797,-35.174 75.797,-105.486l0,-128.891l-37.88,0l-0,128.891c-0,42.964 -15.799,58.587 -37.917,58.587c-25.278,-0 -37.916,-15.623 -37.916,-58.587l-0,-128.891l-41.103,0l0,128.891c0,70.312 28.456,105.486 79.019,105.486Z" style="fill:#fff;fill-rule:nonzero;"/><path d="M860.682,346.86c47.387,-0 75.797,-35.174 75.797,-105.486l0,-128.891l-37.88,0l-0,128.891c-0,42.964 -15.799,58.587 -37.917,58.587c-25.278,-0 -37.916,-15.623 -37.916,-58.587l-0,-128.891l-41.103,0l0,128.891c0,70.312 28.456,105.486 79.019,105.486Zm-0,-6.328c-18.5,-0 -33.812,-5.004 -45.469,-15.297c-18.058,-15.944 -27.222,-44.012 -27.222,-83.861l0,-122.563c0,-0 28.447,-0 28.447,-0c-0,-0 -0,122.563 -0,122.563c-0,28.227 5.661,45.488 15.625,54.931c7.174,6.799 16.661,9.984 28.619,9.984c10.523,-0 19.801,-3.092 27.197,-9.931c10.222,-9.451 17.047,-26.734 17.047,-54.984c0,0 0,-122.563 0,-122.563c0,-0 25.225,-0 25.225,-0c0,-0 0,122.563 0,122.563c0,65.536 -25.301,99.158 -69.469,99.158Z"/><path d="M662.258,346.86c54.215,-0 92.854,-47.922 92.854,-114.8c0,-71.656 -38.639,-119.577 -92.854,-119.577c-54.215,0 -92.854,47.921 -92.854,119.577c0,66.878 38.639,114.8 92.854,114.8Zm0,-43.145c-30.98,0 -54.215,-28.662 -54.215,-71.655c-0,-42.994 23.235,-76.432 54.215,-76.432c30.98,-0 54.215,33.438 54.215,76.432c0,42.993 -23.235,71.655 -54.215,71.655Z" style="fill:#fff;fill-rule:nonzero;"/><path d="M662.258,346.86c54.215,-0 92.854,-47.922 92.854,-114.8c0,-71.656 -38.639,-119.577 -92.854,-119.577c-54.215,0 -92.854,47.921 -92.854,119.577c0,66.878 38.639,114.8 92.854,114.8Zm0,-6.328c-50.949,-0 -86.526,-45.623 -86.526,-108.472c-0,-67.455 35.489,-113.249 86.526,-113.249c51.037,-0 86.526,45.794 86.526,113.249c0,62.849 -35.577,108.472 -86.526,108.472Zm0,-30.489c34.039,0 60.543,-30.745 60.543,-77.983c0,-47.047 -26.642,-82.76 -60.543,-82.76c-33.9,-0 -60.543,35.713 -60.543,82.76c-0,47.238 26.504,77.983 60.543,77.983Zm0,-6.328c-30.98,0 -54.215,-28.662 -54.215,-71.655c-0,-42.994 23.235,-76.432 54.215,-76.432c30.98,-0 54.215,33.438 54.215,76.432c0,42.993 -23.235,71.655 -54.215,71.655Z"/><path d="M543.801,153.75l-0,-41.267l-133.779,0l-0,41.267l133.779,0Zm-133.779,55.405l-0,137.705l39.017,-0l0,-96.438l83.613,0l0,-41.267l-122.63,-0Z" style="fill:#fff;fill-rule:nonzero;"/><path d="M410.022,209.155l-0,137.705l39.017,-0l0,-96.438l83.613,0l0,-41.267l-122.63,-0Zm6.424,6.424l109.782,0c-0,0 -0,28.419 -0,28.419c-0,0 -77.189,0 -77.189,0l-6.424,6.424l0,90.013c0,0 -26.169,0 -26.169,0l-0,-124.856Zm127.355,-61.829l-0,-41.267l-133.779,0l-0,41.267l133.779,0Zm-6.425,-6.424l-120.93,0c-0,0 -0,-28.419 -0,-28.419c-0,0 120.93,0 120.93,0l0,28.419Z"/><path d="M305.209,346.86c47.387,-0 75.798,-35.174 75.798,-105.486l-0,-128.891l-37.881,0l0,128.891c0,42.964 -15.799,58.587 -37.917,58.587c-25.277,-0 -37.916,-15.623 -37.916,-58.587l0,-128.891l-41.102,0l-0,128.891c-0,70.312 28.455,105.486 79.018,105.486Z" style="fill:#fff;fill-rule:nonzero;"/><path d="M305.209,346.86c47.387,-0 75.798,-35.174 75.798,-105.486l-0,-128.891l-37.881,0l0,128.891c0,42.964 -15.799,58.587 -37.917,58.587c-25.277,-0 -37.916,-15.623 -37.916,-58.587l0,-128.891l-41.102,0l-0,128.891c-0,70.312 28.455,105.486 79.018,105.486Zm0,-6.328c-18.499,-0 -33.812,-5.004 -45.469,-15.297c-18.057,-15.944 -27.221,-44.012 -27.221,-83.861c-0,0 -0,-122.563 -0,-122.563c-0,-0 28.447,-0 28.447,-0c-0.001,-0 -0.001,122.563 -0.001,122.563c0,28.227 5.661,45.488 15.625,54.931c7.175,6.799 16.662,9.984 28.619,9.984c10.524,-0 19.801,-3.092 27.198,-9.931c10.222,-9.451 17.047,-26.734 17.047,-54.984c-0,0 -0,-122.563 -0,-122.563c-0,-0 25.225,-0 25.225,-0c-0,-0 -0,122.563 -0,122.563c-0,65.536 -25.301,99.158 -69.47,99.158Z"/><path d="M26.44,346.86l80.729,-0c55.917,-0 96.261,-46.048 96.261,-115.203c0,-72.997 -40.344,-119.156 -96.261,-119.156l-80.729,0l-0,234.359Zm40.345,-42.206l-0,-145.994l37.277,-0c34.172,-0 59.024,26.894 59.024,72.997c-0,42.261 -24.852,72.997 -59.024,72.997l-37.277,-0Z" style="fill:#fff;fill-rule:nonzero;"/><path d="M26.44,346.86l80.729,-0c55.917,-0 96.261,-46.048 96.261,-115.203c0,-72.997 -40.344,-119.156 -96.261,-119.156l-80.729,0l-0,234.359Zm6.328,-6.328l-0,-221.703c-0,-0 74.401,-0 74.401,-0c52.669,-0 89.933,44.07 89.933,112.828c0,65.05 -37.335,108.875 -89.933,108.875l-74.401,-0Zm27.689,-35.878l6.328,6.328l37.277,-0c37.413,-0 65.352,-33.055 65.352,-79.325c-0,-50.476 -27.939,-79.325 -65.352,-79.325l-37.277,0l-6.328,6.328l-0,145.994Zm6.328,-0l-0,-145.994l37.277,-0c34.172,-0 59.024,26.894 59.024,72.997c-0,42.261 -24.852,72.997 -59.024,72.997l-37.277,-0Z"/></g><g id="Project-Management" serif:id="Project Management" transform="matrix(4.02927,0,0,4.60126,-75194.3,-56572)"><text x="18929px" y="12364px" style="font-family:'SouthlandRegular', 'Southland';font-size:58.589px;">P<tspan x="18964.1px " y="12364px ">r</tspan>oj<tspan x="18992px " y="12364px ">e</tspan>ct M<tspan x="19073.9px 19087.8px 19098.8px 19112.7px 19126.1px " y="12364px 12364px 12364px 12364px 12364px ">anage</tspan>men<tspan x="19171px " y="12364px ">t</tspan></text><path d="" style="fill:#fff;"/><path d="" style="fill:#fff;"/><path d="" style="fill:#fff;"/><path d="" style="fill:#fff;"/><path d="" style="fill:#fff;"/><path d="" style="fill:#fff;"/><path d="" style="fill:#fff;"/><path d="" style="fill:#fff;"/><path d="" style="fill:#fff;"/><path d="" style="fill:#fff;"/><path d="" style="fill:#fff;"/><path d="" style="fill:#fff;"/><path d="" style="fill:#fff;"/><path d="" style="fill:#fff;"/><path d="" style="fill:#fff;"/><path d="" style="fill:#fff;"/><path d="" style="fill:#fff;"/></g><g id="DPM1" serif:id="DPM"></g></g></g></svg>