<?xml version="1.0" encoding="UTF-8" standalone="no"?><!DOCTYPE svg PUBLIC "-//W3C//DTD SVG 1.1//EN" "http://www.w3.org/Graphics/SVG/1.1/DTD/svg11.dtd"><svg width="100%" height="100%" viewBox="0 0 2134 534" version="1.1" xmlns="http://www.w3.org/2000/svg" xmlns:xlink="http://www.w3.org/1999/xlink" xml:space="preserve" xmlns:serif="http://www.serif.com/" style="fill-rule:evenodd;clip-rule:evenodd;stroke-linejoin:round;stroke-miterlimit:2;"><g id="Plain-Black---512-x-128" serif:id="Plain Black - 512 x 128"><rect id="Black-Background" serif:id="Black Background" x="0" y="0" width="2133.33" height="533.333"/><path d="M2133.33,0l-2133.33,0l0,533.333l2133.33,0l0,-533.333Zm-7.376,7.376l0,518.581c0,0 -1982.19,0 -2118.58,0c-0,0 -0,-518.581 -0,-518.581l2118.58,-0Z" style="fill:#fff;"/><g id="DPM"><path id="White" d="M1200.09,350.536c-1.289,-0.382 -2.388,-1.811 -3.298,-4.289c-0.455,-1.429 -0.493,-2.906 -0.114,-4.431c0.607,-2.383 1.441,-3.478 2.502,-3.288c0.379,0 0.72,-0.143 1.023,-0.429c0.682,-0.667 1.63,-0.643 2.843,0.072c1.213,0.715 2.122,1.834 2.729,3.359c0.303,0.667 0.416,1.287 0.341,1.858c-0,0.477 -0.038,0.858 -0.114,1.144c-0.076,0.286 -0.303,0.715 -0.682,1.286c-0.455,0.858 -1.024,1.763 -1.706,2.716c-0.682,0.953 -1.175,1.525 -1.478,1.716c-0.455,0.381 -1.137,0.476 -2.046,0.286Zm4.889,13.008c0.379,-0 0.852,0.333 1.421,1c0.568,0.667 0.853,1.239 0.853,1.716c-0,0.19 -0.285,0.738 -0.853,1.643c-0.569,0.906 -1.289,1.978 -2.16,3.217c-0.872,1.239 -1.839,2.573 -2.9,4.002c-1.061,1.43 -2.084,2.764 -3.07,4.003c-2.729,3.43 -4.661,5.479 -5.798,6.146c-0.379,0.191 -0.853,0.334 -1.422,0.429c-0.568,0.095 -1.042,0.048 -1.421,-0.143c-0.379,-0.19 -0.815,-0.619 -1.307,-1.286c-0.493,-0.667 -0.891,-1.335 -1.194,-2.002c-0.228,-0.476 -0.36,-0.881 -0.398,-1.215c-0.038,-0.333 -0.095,-0.929 -0.171,-1.786c0,-3.431 0.872,-7.672 2.615,-12.723c0.455,-1.238 0.948,-2.549 1.478,-3.931c0.531,-1.381 1.043,-2.644 1.535,-3.788c0.493,-1.143 0.929,-2.144 1.308,-3.001c0.379,-0.858 0.682,-1.43 0.909,-1.716c0.304,-0.572 0.948,-0.572 1.933,0c0.607,0.381 1.156,0.906 1.649,1.573c0.493,0.667 0.815,1.286 0.966,1.858c0.152,0.476 0.152,0.977 0,1.501c-0.151,0.524 -0.682,2.025 -1.591,4.503c-0.607,1.524 -1.251,3.24 -1.933,5.146c-0.682,1.906 -1.327,3.74 -1.933,5.503c-0.607,1.763 -1.099,3.24 -1.478,4.431c-0.379,1.191 -0.531,1.835 -0.455,1.93c0.076,0.095 0.568,-0.405 1.478,-1.501c0.91,-1.096 1.99,-2.454 3.241,-4.074c1.25,-1.62 2.558,-3.359 3.922,-5.217c1.365,-1.859 2.502,-3.455 3.411,-4.789c0.682,-0.953 1.137,-1.429 1.365,-1.429Z" style="fill:#fff;fill-rule:nonzero;"/><path d="M1225.79,350.25c1.288,1.62 1.592,3.287 0.909,5.003c-0.151,0.286 -0.435,0.929 -0.852,1.93c-0.417,1 -0.891,2.025 -1.422,3.073c-2.122,4.383 -3.809,8.434 -5.059,12.15c-1.251,3.717 -2.369,7.815 -3.354,12.293c-0.607,3.05 -1.062,6.004 -1.365,8.863c-0.303,2.859 -0.379,5.146 -0.227,6.861c0.076,0.572 0.151,0.953 0.227,1.144c0.076,0.191 0.303,0.524 0.682,1.001c0.455,0.762 0.683,1.143 0.683,1.143c-0.076,0.095 -0.285,0.215 -0.626,0.358c-0.341,0.142 -0.625,0.214 -0.853,0.214c-0.151,-0 -0.322,-0.048 -0.511,-0.143c-0.19,-0.095 -0.398,-0.191 -0.626,-0.286c-0.454,-0.286 -0.947,-0.691 -1.478,-1.215c-0.53,-0.524 -0.985,-1.024 -1.364,-1.501c-0.606,-0.953 -1.023,-2.096 -1.251,-3.431c-0.227,-1.334 -0.265,-3.287 -0.113,-5.86c0.075,-4.193 0.549,-8.506 1.421,-12.937c0.872,-4.431 2.027,-8.457 3.468,-12.079l0.454,-1.143l-0.454,0.572c-0.683,0.762 -1.63,2.096 -2.843,4.002c-1.213,1.906 -2.274,3.764 -3.183,5.575c-0.531,0.953 -1.251,2.382 -2.161,4.288c-0.909,1.906 -1.592,3.383 -2.046,4.432c-0.379,0.762 -0.986,1.143 -1.82,1.143c-0.53,0 -1.099,-0.31 -1.705,-0.929c-0.606,-0.62 -1.099,-1.406 -1.478,-2.359c-0.152,-0.476 -0.247,-0.81 -0.284,-1c-0.038,-0.191 -0.019,-0.667 0.056,-1.43c0.228,-2.001 0.664,-4.312 1.308,-6.933c0.644,-2.62 1.421,-5.241 2.331,-7.862c0.909,-2.62 1.876,-5.146 2.899,-7.576c1.023,-2.43 1.99,-4.407 2.9,-5.932c0.379,-0.762 0.625,-1.191 0.739,-1.286c0.113,-0.096 0.322,-0.096 0.625,-0c0.834,0.19 1.668,0.833 2.501,1.929c0.834,1.096 1.251,2.168 1.251,3.217c0,0.381 -0.265,1.239 -0.796,2.573c-0.151,0.571 -0.322,1.119 -0.511,1.644c-0.19,0.524 -0.323,0.881 -0.398,1.072c-0.152,0.381 -0.076,0.405 0.227,0.071c0.303,-0.333 1.061,-1.263 2.274,-2.787c1.819,-2.287 3.506,-4.241 5.06,-5.861c1.554,-1.62 2.747,-2.716 3.581,-3.288c0.455,-0.286 0.834,-0.381 1.137,-0.286c0.834,0.286 1.516,0.81 2.047,1.573Z" style="fill:#fff;fill-rule:nonzero;"/><path d="M1251.67,362.257c0.152,0.381 0.114,0.762 -0.114,1.144c-0.985,1.429 -2.387,3.311 -4.206,5.646c-1.82,2.335 -3.753,4.67 -5.799,7.004c-2.047,2.335 -4.093,4.408 -6.14,6.218c-2.047,1.811 -3.79,2.955 -5.23,3.431c-0.607,0.191 -1.156,0.262 -1.649,0.214c-0.493,-0.047 -0.928,-0.166 -1.307,-0.357c-0.531,-0.19 -0.948,-0.429 -1.251,-0.715c-0.379,-0.285 -0.91,-0.857 -1.592,-1.715c-0.682,-0.858 -1.137,-1.668 -1.364,-2.43l-0.455,-1.144l-0,-3.001c-0,-2.383 0.246,-4.861 0.739,-7.434c0.493,-2.573 1.194,-5.026 2.103,-7.361c0.91,-2.335 2.047,-4.455 3.411,-6.361c1.365,-1.906 2.957,-3.383 4.776,-4.432c0.909,-0.476 1.705,-0.714 2.388,-0.714c2.046,-0 3.733,0.953 5.059,2.859c1.327,1.906 1.99,4.097 1.99,6.575l0.114,1.572l-0.683,0.143c-0.303,0 -0.758,-0.095 -1.364,-0.285c-0.455,-0.286 -0.872,-0.715 -1.251,-1.287c-0.379,-0.572 -0.871,-1.525 -1.478,-2.859c-0.151,-0.19 -0.455,-0.048 -0.909,0.429c-1.365,1.143 -2.672,2.597 -3.923,4.36c-1.251,1.763 -2.331,3.716 -3.241,5.861c-0.909,2.144 -1.629,4.359 -2.16,6.646c-0.53,2.288 -0.796,4.432 -0.796,6.433c0,0.667 0.038,1.048 0.114,1.144c0.076,0.095 0.474,-0.024 1.194,-0.358c0.72,-0.333 1.421,-0.738 2.103,-1.215c1.971,-1.239 4.075,-3.002 6.311,-5.289c2.236,-2.287 5.097,-5.67 8.584,-10.149c1.289,-1.62 2.217,-2.764 2.786,-3.431c0.568,-0.667 0.928,-1 1.08,-1c0.379,-0 0.796,0.19 1.251,0.572c0.454,0.381 0.758,0.81 0.909,1.286Z" style="fill:#fff;fill-rule:nonzero;"/><path d="M1259.52,380.983c0.53,1.429 0.72,2.621 0.568,3.574c-0.076,0.381 -0.379,0.905 -0.91,1.572c-0.53,0.667 -0.985,1.143 -1.364,1.429c-0.531,0.286 -0.929,0.453 -1.194,0.501c-0.265,0.047 -0.663,-0.024 -1.194,-0.215c-1.592,-0.667 -2.615,-2.62 -3.07,-5.861c-0.075,-0.952 -0.038,-1.667 0.114,-2.144c0.152,-0.476 0.36,-1.024 0.625,-1.644c0.266,-0.619 0.512,-1.024 0.739,-1.215c0.304,-0.095 0.645,-0.047 1.024,0.143c0.53,0.286 0.834,0.382 0.909,0.286c0.379,-0.286 0.986,-0.047 1.82,0.715c0.833,0.762 1.478,1.715 1.933,2.859Z" style="fill:#fff;fill-rule:nonzero;"/><g id="Dufour"><path d="M965.875,388.445l-0.25,0l0.036,-41.585l-0.167,-0l0,-110.017l86.009,-0c15.943,-5.926 23.914,-19.752 23.914,-39.503c0,-25.677 -12.754,-41.478 -36.668,-41.478l-73.255,0l0,-43.379l74.85,0c46.19,0 76.365,31.549 76.365,84.857c0,35.552 -14.293,61.147 -36.527,74.92l39.713,74.6l-42.89,-0l-35.067,-64.761l-36.668,-0l0,64.761l-0.086,-0l-0.007,8.191l125.086,-0l0,-31.682l48.741,48.741l-48.741,48.74l0,-31.681l-164.388,-0l0,-0.724Z" style="fill:#fff;"/><path d="M1005.18,353.279l-0.001,1.772l125.086,-0l0,-31.682l48.741,48.741l-48.741,48.74l0,-31.681l-164.388,-0l0,-0.724l-0.25,0l0.036,-41.585l-0.167,-0l0,-110.017l86.009,-0c15.943,-5.926 23.914,-19.752 23.914,-39.503c0,-25.677 -12.754,-41.478 -36.668,-41.478l-73.255,0l0,-43.379l74.85,0c46.19,0 76.365,31.549 76.365,84.857c0,35.552 -14.293,61.147 -36.527,74.92l39.713,74.6l-42.89,-0l-35.067,-64.761l-36.668,-0l0,64.761l-0.086,-0l-0.005,6.408l-0.042,-0.117l-6.291,-6.291l-0,-64.761l6.424,-6.424l36.668,-0l5.649,3.365c0,-0 33.245,61.395 33.245,61.395c0,0 28.365,0 28.365,0.001l-34.686,-65.157l2.287,-8.48c20.57,-12.742 33.487,-36.569 33.487,-69.459c-0,-24.772 -6.799,-44.559 -19.176,-58.082c-12.166,-13.292 -29.667,-20.351 -50.765,-20.351c-0,0 -68.426,0 -68.426,0c0,0 0,30.531 0,30.531c0,-0 66.831,-0 66.831,-0c14.126,-0 24.868,4.879 32.166,13.337c7.047,8.167 10.926,19.92 10.926,34.565c0,22.883 -9.629,38.66 -28.099,45.524l-2.239,0.403c0,-0 -79.585,-0 -79.585,-0l0,103.593l-6.049,6.049l-0.208,0.375l6.425,-6.419l-0.031,35.88l158.208,-0l6.425,6.424c-0,-0 -0,16.172 -0,16.172c-0,-0 33.23,-33.231 33.231,-33.231c-0,-0 -33.231,-33.231 -33.231,-33.231l-0,16.172l-6.425,6.424l-125.086,-0l-6.424,-6.43l0.007,-8.191l6.418,6.425Z"/><path d="M860.682,346.86c47.387,-0 75.797,-35.174 75.797,-105.486l0,-128.891l-37.88,0l-0,128.891c-0,42.964 -15.799,58.587 -37.917,58.587c-25.278,-0 -37.916,-15.623 -37.916,-58.587l-0,-128.891l-41.103,0l0,128.891c0,70.312 28.456,105.486 79.019,105.486Z" style="fill:#fff;fill-rule:nonzero;"/><path d="M860.682,346.86c47.387,-0 75.797,-35.174 75.797,-105.486l0,-128.891l-37.88,0l-0,128.891c-0,42.964 -15.799,58.587 -37.917,58.587c-25.278,-0 -37.916,-15.623 -37.916,-58.587l-0,-128.891l-41.103,0l0,128.891c0,70.312 28.456,105.486 79.019,105.486Zm-0,-6.328c-18.5,-0 -33.812,-5.004 -45.469,-15.297c-18.058,-15.944 -27.222,-44.012 -27.222,-83.861l0,-122.563c0,-0 28.447,-0 28.447,-0c-0,-0 -0,122.563 -0,122.563c-0,28.227 5.661,45.488 15.625,54.931c7.174,6.799 16.661,9.984 28.619,9.984c10.523,-0 19.801,-3.092 27.197,-9.931c10.222,-9.451 17.047,-26.734 17.047,-54.984c0,0 0,-122.563 0,-122.563c0,-0 25.225,-0 25.225,-0c0,-0 0,122.563 0,122.563c0,65.536 -25.301,99.158 -69.469,99.158Z"/><path d="M662.258,346.86c54.215,-0 92.854,-47.922 92.854,-114.8c0,-71.656 -38.639,-119.577 -92.854,-119.577c-54.215,0 -92.854,47.921 -92.854,119.577c0,66.878 38.639,114.8 92.854,114.8Zm0,-43.145c-30.98,0 -54.215,-28.662 -54.215,-71.655c-0,-42.994 23.235,-76.432 54.215,-76.432c30.98,-0 54.215,33.438 54.215,76.432c0,42.993 -23.235,71.655 -54.215,71.655Z" style="fill:#fff;fill-rule:nonzero;"/><path d="M662.258,346.86c54.215,-0 92.854,-47.922 92.854,-114.8c0,-71.656 -38.639,-119.577 -92.854,-119.577c-54.215,0 -92.854,47.921 -92.854,119.577c0,66.878 38.639,114.8 92.854,114.8Zm0,-6.328c-50.949,-0 -86.526,-45.623 -86.526,-108.472c-0,-67.455 35.489,-113.249 86.526,-113.249c51.037,-0 86.526,45.794 86.526,113.249c0,62.849 -35.577,108.472 -86.526,108.472Zm0,-30.489c34.039,0 60.543,-30.745 60.543,-77.983c0,-47.047 -26.642,-82.76 -60.543,-82.76c-33.9,-0 -60.543,35.713 -60.543,82.76c-0,47.238 26.504,77.983 60.543,77.983Zm0,-6.328c-30.98,0 -54.215,-28.662 -54.215,-71.655c-0,-42.994 23.235,-76.432 54.215,-76.432c30.98,-0 54.215,33.438 54.215,76.432c0,42.993 -23.235,71.655 -54.215,71.655Z"/><path d="M543.801,153.75l-0,-41.267l-133.779,0l-0,41.267l133.779,0Zm-133.779,55.405l-0,137.705l39.017,-0l0,-96.438l83.613,0l0,-41.267l-122.63,-0Z" style="fill:#fff;fill-rule:nonzero;"/><path d="M410.022,209.155l-0,137.705l39.017,-0l0,-96.438l83.613,0l0,-41.267l-122.63,-0Zm6.424,6.424l109.782,0c-0,0 -0,28.419 -0,28.419c-0,0 -77.189,0 -77.189,0l-6.424,6.424l0,90.013c0,0 -26.169,0 -26.169,0l-0,-124.856Zm127.355,-61.829l-0,-41.267l-133.779,0l-0,41.267l133.779,0Zm-6.425,-6.424l-120.93,0c-0,0 -0,-28.419 -0,-28.419c-0,0 120.93,0 120.93,0l0,28.419Z"/><path d="M305.209,346.86c47.387,-0 75.798,-35.174 75.798,-105.486l-0,-128.891l-37.881,0l0,128.891c0,42.964 -15.799,58.587 -37.917,58.587c-25.277,-0 -37.916,-15.623 -37.916,-58.587l0,-128.891l-41.102,0l-0,128.891c-0,70.312 28.455,105.486 79.018,105.486Z" style="fill:#fff;fill-rule:nonzero;"/><path d="M305.209,346.86c47.387,-0 75.798,-35.174 75.798,-105.486l-0,-128.891l-37.881,0l0,128.891c0,42.964 -15.799,58.587 -37.917,58.587c-25.277,-0 -37.916,-15.623 -37.916,-58.587l0,-128.891l-41.102,0l-0,128.891c-0,70.312 28.455,105.486 79.018,105.486Zm0,-6.328c-18.499,-0 -33.812,-5.004 -45.469,-15.297c-18.057,-15.944 -27.221,-44.012 -27.221,-83.861c-0,0 -0,-122.563 -0,-122.563c-0,-0 28.447,-0 28.447,-0c-0.001,-0 -0.001,122.563 -0.001,122.563c0,28.227 5.661,45.488 15.625,54.931c7.175,6.799 16.662,9.984 28.619,9.984c10.524,-0 19.801,-3.092 27.198,-9.931c10.222,-9.451 17.047,-26.734 17.047,-54.984c-0,0 -0,-122.563 -0,-122.563c-0,-0 25.225,-0 25.225,-0c-0,-0 -0,122.563 -0,122.563c-0,65.536 -25.301,99.158 -69.47,99.158Z"/><path d="M26.44,346.86l80.729,-0c55.917,-0 96.261,-46.048 96.261,-115.203c0,-72.997 -40.344,-119.156 -96.261,-119.156l-80.729,0l-0,234.359Zm40.345,-42.206l-0,-145.994l37.277,-0c34.172,-0 59.024,26.894 59.024,72.997c-0,42.261 -24.852,72.997 -59.024,72.997l-37.277,-0Z" style="fill:#fff;fill-rule:nonzero;"/><path d="M26.44,346.86l80.729,-0c55.917,-0 96.261,-46.048 96.261,-115.203c0,-72.997 -40.344,-119.156 -96.261,-119.156l-80.729,0l-0,234.359Zm6.328,-6.328l-0,-221.703c-0,-0 74.401,-0 74.401,-0c52.669,-0 89.933,44.07 89.933,112.828c0,65.05 -37.335,108.875 -89.933,108.875l-74.401,-0Zm27.689,-35.878l6.328,6.328l37.277,-0c37.413,-0 65.352,-33.055 65.352,-79.325c-0,-50.476 -27.939,-79.325 -65.352,-79.325l-37.277,0l-6.328,6.328l-0,145.994Zm6.328,-0l-0,-145.994l37.277,-0c34.172,-0 59.024,26.894 59.024,72.997c-0,42.261 -24.852,72.997 -59.024,72.997l-37.277,-0Z"/></g><g id="Project-Management" serif:id="Project Management" transform="matrix(4.02927,0,0,4.60126,-75194.3,-56572)"><g transform="matrix(58.5892,0,0,58.5892,18929,12364)"><path d="M0.575,-0.571c0.039,0.009 0.07,0.029 0.093,0.06c0.023,0.031 0.034,0.067 0.032,0.108c-0.001,0.026 -0.007,0.053 -0.018,0.081c-0.011,0.028 -0.026,0.056 -0.045,0.083c-0.018,0.027 -0.041,0.054 -0.067,0.079c-0.026,0.025 -0.055,0.048 -0.086,0.069c-0.049,0.033 -0.089,0.049 -0.122,0.049c-0.03,0 -0.051,-0.013 -0.064,-0.038c-0.001,-0.003 -0.003,-0.006 -0.004,-0.008c-0.001,-0.003 -0.002,-0.004 -0.002,-0.005c-0,-0.005 -0.002,-0.003 -0.005,0.006c-0.017,0.046 -0.032,0.088 -0.043,0.127c-0.011,0.039 -0.017,0.067 -0.018,0.086l-0,0.005l-0.008,0c-0.005,-0 -0.009,-0.001 -0.011,-0.002c-0.007,-0.005 -0.013,-0.01 -0.018,-0.017l-0.006,-0.008l0,-0.015c0,-0.009 0.001,-0.019 0.002,-0.028c0.001,-0.009 0.003,-0.02 0.006,-0.032c0.003,-0.015 0.008,-0.032 0.012,-0.051c0.005,-0.019 0.011,-0.037 0.017,-0.056c0.006,-0.019 0.012,-0.038 0.019,-0.057c0.007,-0.019 0.013,-0.036 0.02,-0.051c0.013,-0.03 0.028,-0.061 0.046,-0.093c0.018,-0.033 0.036,-0.063 0.055,-0.091c0.019,-0.028 0.037,-0.052 0.054,-0.073c0.017,-0.021 0.032,-0.034 0.044,-0.041c0.013,-0.008 0.027,-0.004 0.044,0.012c0.01,0.011 0.016,0.023 0.018,0.034c0.001,0.006 0.001,0.01 0,0.011c-0.001,0.002 -0.003,0.003 -0.006,0.002c-0.003,-0.001 -0.006,-0.001 -0.008,-0.002c-0.001,-0.001 -0.004,-0.003 -0.007,-0.006l-0.005,-0.005l-0.012,0.012c-0.009,0.009 -0.018,0.019 -0.025,0.028c-0.008,0.01 -0.018,0.024 -0.029,0.041c-0.005,0.007 -0.01,0.014 -0.015,0.022c-0.006,0.009 -0.012,0.017 -0.017,0.026c-0.006,0.009 -0.012,0.018 -0.017,0.027c-0.005,0.009 -0.01,0.016 -0.013,0.023l-0.005,0.009l0.005,-0.004c0.009,-0.007 0.019,-0.013 0.03,-0.02c0.011,-0.006 0.02,-0.011 0.029,-0.014c0.012,-0.005 0.024,-0.007 0.037,-0.007c0.013,0.001 0.023,0.005 0.031,0.01c0.003,0.002 0.006,0.005 0.009,0.008c0.003,0.004 0.004,0.008 0.004,0.011l0,0.004l-0.005,-0.001c-0.001,-0.001 -0.003,-0.001 -0.004,-0.002c-0.002,0 -0.004,-0 -0.005,-0.001c-0.003,-0.001 -0.007,-0.002 -0.014,-0.001c-0.007,0.001 -0.013,0.002 -0.018,0.003c-0.013,0.003 -0.029,0.011 -0.046,0.022c-0.017,0.011 -0.032,0.024 -0.044,0.037c-0.016,0.017 -0.029,0.035 -0.038,0.055c-0.009,0.02 -0.014,0.039 -0.013,0.056l0.001,0.012l0.009,0.001c0.015,0.001 0.035,-0.005 0.059,-0.017c0.024,-0.011 0.05,-0.028 0.079,-0.049c0.045,-0.034 0.084,-0.072 0.116,-0.113c0.032,-0.041 0.055,-0.081 0.068,-0.122c0.007,-0.021 0.011,-0.042 0.012,-0.061c0.001,-0.019 -0.001,-0.034 -0.006,-0.045c-0.005,-0.011 -0.015,-0.021 -0.029,-0.029c-0.014,-0.007 -0.03,-0.012 -0.048,-0.014c-0.025,-0.003 -0.051,-0.002 -0.079,0.003c-0.028,0.005 -0.057,0.014 -0.087,0.027c-0.029,0.013 -0.058,0.03 -0.087,0.05c-0.029,0.02 -0.057,0.043 -0.084,0.069c-0.048,0.047 -0.084,0.095 -0.107,0.142c-0.011,0.025 -0.017,0.045 -0.017,0.06c0,0.005 0.001,0.008 0.002,0.009c0.001,0.001 0.007,0.001 0.016,0.001c0.007,-0 0.014,-0 0.021,-0.001c0.006,-0.001 0.017,-0.003 0.033,-0.006c0.007,-0.001 0.013,-0.002 0.018,-0.003c0.005,-0.001 0.008,-0.001 0.009,-0.001c0.009,0.001 0.015,0.006 0.018,0.014c0.003,0.006 0.003,0.009 -0.002,0.009c-0.001,0.001 -0.004,0.001 -0.009,0.002c-0.005,0.001 -0.011,0.003 -0.018,0.004c-0.017,0.004 -0.029,0.006 -0.034,0.007c-0.006,0.001 -0.013,0.002 -0.02,0.002c-0.019,-0 -0.035,-0.006 -0.046,-0.017c-0.003,-0.004 -0.006,-0.009 -0.009,-0.015c-0.003,-0.005 -0.006,-0.011 -0.007,-0.016c-0.005,-0.021 0.001,-0.049 0.018,-0.085c0.017,-0.035 0.043,-0.073 0.077,-0.112c0.007,-0.009 0.018,-0.02 0.032,-0.034c0.013,-0.013 0.025,-0.024 0.034,-0.032c0.027,-0.023 0.054,-0.043 0.083,-0.06c0.028,-0.017 0.056,-0.03 0.084,-0.041c0.028,-0.01 0.055,-0.017 0.082,-0.02c0.027,-0.003 0.051,-0.001 0.074,0.004Z" style="fill-rule:nonzero;"/></g><g transform="matrix(58.5892,0,0,58.5892,18964.1,12364)"><path d="M0.237,-0.249c0.001,0.004 0,0.008 -0.001,0.013c-0.001,0.005 -0.003,0.015 -0.008,0.03c-0.002,0.006 -0.004,0.012 -0.006,0.018c-0.001,0.006 -0.002,0.01 -0.003,0.012c-0.001,0.005 -0.002,0.008 -0.005,0.008c-0.005,-0 -0.011,-0.003 -0.016,-0.009c-0.006,-0.006 -0.009,-0.015 -0.01,-0.026l-0.001,-0.01l-0.029,0.028c-0.01,0.009 -0.019,0.018 -0.026,0.026c-0.007,0.008 -0.014,0.016 -0.021,0.024c-0.007,0.008 -0.013,0.016 -0.019,0.025c-0.006,0.008 -0.012,0.017 -0.019,0.027c-0.003,0.005 -0.007,0.011 -0.011,0.016c-0.004,0.005 -0.007,0.009 -0.008,0.011c-0.003,0.004 -0.005,0.006 -0.006,0.007c-0.002,0.001 -0.004,0.001 -0.007,0.002c-0.005,0.001 -0.008,0.001 -0.011,0c-0.006,-0.001 -0.012,-0.005 -0.018,-0.011c-0.006,-0.006 -0.009,-0.012 -0.009,-0.017c0,-0.004 0.002,-0.011 0.005,-0.021c0.003,-0.011 0.006,-0.022 0.011,-0.034c0.005,-0.013 0.01,-0.026 0.016,-0.039c0.005,-0.014 0.011,-0.027 0.017,-0.038c0.009,-0.017 0.018,-0.034 0.027,-0.05c0.009,-0.016 0.017,-0.027 0.022,-0.032c0.003,-0.003 0.006,-0.005 0.008,-0.005c0.002,-0.001 0.006,0 0.011,0.003c0.007,0.003 0.013,0.008 0.018,0.015c0.005,0.007 0.008,0.012 0.008,0.017c-0,0.004 -0.003,0.011 -0.009,0.021l-0.008,0.017l0.011,-0.012c0.011,-0.012 0.022,-0.022 0.031,-0.03c0.009,-0.009 0.017,-0.014 0.022,-0.017c0.005,-0.003 0.011,-0.002 0.018,0.001c0.006,0.003 0.011,0.008 0.016,0.013c0.005,0.005 0.009,0.011 0.01,0.017Z" style="fill-rule:nonzero;"/></g><g transform="matrix(58.5892,0,0,58.5892,18975.5,12364)"><path d="M0.254,-0.182c0.003,0.001 0.005,0.004 0.008,0.007c0.002,0.003 0.003,0.005 0.003,0.006c0,0.002 -0.004,0.006 -0.011,0.011c-0.007,0.005 -0.016,0.011 -0.024,0.016c-0.01,0.005 -0.018,0.01 -0.027,0.014c-0.009,0.004 -0.015,0.006 -0.018,0.007l-0.009,0.002l-0.007,0.011c-0.009,0.014 -0.019,0.026 -0.03,0.036c-0.011,0.011 -0.02,0.018 -0.029,0.021c-0.002,0.001 -0.006,0.002 -0.012,0.003c-0.007,0.001 -0.011,0.002 -0.012,0.002c0,-0 -0.003,-0.001 -0.008,-0.002c-0.008,-0.001 -0.016,-0.005 -0.024,-0.012c-0.009,-0.007 -0.016,-0.015 -0.023,-0.025c-0.004,-0.005 -0.007,-0.01 -0.008,-0.014c-0.001,-0.003 -0.002,-0.008 -0.003,-0.014c-0.001,-0.006 -0.002,-0.012 -0.001,-0.017c0.001,-0.005 0.002,-0.012 0.004,-0.02c0.005,-0.019 0.013,-0.037 0.022,-0.054c0.009,-0.017 0.019,-0.029 0.029,-0.037c0.005,-0.004 0.011,-0.01 0.016,-0.017c0.019,-0.023 0.035,-0.035 0.05,-0.036c0.008,-0.001 0.017,0 0.026,0.004c0.009,0.005 0.018,0.011 0.025,0.018c0.012,0.012 0.019,0.025 0.021,0.04c0.001,0.015 -0.002,0.035 -0.01,0.058c-0.001,0.003 -0.002,0.006 -0.003,0.009c-0.001,0.003 -0.002,0.004 -0.001,0.004c0.001,-0 0.003,-0.001 0.006,-0.003c0.003,-0.002 0.007,-0.004 0.011,-0.007c0.004,-0.003 0.008,-0.005 0.012,-0.008c0.004,-0.003 0.006,-0.004 0.007,-0.005c0.004,-0.003 0.011,-0.003 0.02,0.002Zm-0.111,0.012c0.019,-0.031 0.028,-0.057 0.028,-0.08c0,-0.005 -0,-0.009 -0.001,-0.01c-0.001,-0.001 -0.003,-0 -0.006,0.001c-0.003,0.001 -0.008,0.003 -0.013,0.006c-0.005,0.003 -0.008,0.006 -0.011,0.008l-0.004,0.003l0.002,0.006c0.002,0.003 0.002,0.006 0.001,0.007c-0.001,0.001 -0.003,0.006 -0.004,0.014c-0.001,0.008 -0.002,0.017 -0.003,0.026c0,0.009 0,0.017 0.001,0.023c-0,0.006 0,0.009 0.001,0.009c0.001,-0 0.004,-0.004 0.009,-0.013Zm-0.022,0.032l-0.007,-0.009c-0.008,-0.01 -0.014,-0.02 -0.017,-0.029c0,-0.002 -0.002,0.001 -0.005,0.008c-0.005,0.011 -0.01,0.022 -0.013,0.035c-0.003,0.013 -0.006,0.025 -0.007,0.037c-0.001,0.004 -0.001,0.006 0,0.007c0.001,0.001 0.003,-0.001 0.007,-0.004c0.004,-0.003 0.009,-0.008 0.016,-0.015c0.007,-0.007 0.013,-0.013 0.018,-0.019l0.008,-0.011Z" style="fill-rule:nonzero;"/></g><g transform="matrix(58.5892,0,0,58.5892,18986.8,12364)"><path d="M0.097,-0.281c0.007,0.001 0.014,0.005 0.021,0.011c0.007,0.006 0.012,0.013 0.015,0.02c0.001,0.002 0.001,0.004 0.001,0.007c-0.001,0.003 -0.002,0.007 -0.005,0.013c-0.002,0.007 -0.005,0.016 -0.01,0.027c-0.005,0.011 -0.011,0.027 -0.019,0.047c-0.013,0.033 -0.025,0.06 -0.034,0.081c-0.009,0.021 -0.016,0.039 -0.021,0.052c-0.007,0.02 -0.015,0.039 -0.024,0.057c-0.009,0.018 -0.017,0.035 -0.026,0.05c-0.013,0.023 -0.027,0.043 -0.04,0.06c-0.014,0.017 -0.026,0.029 -0.036,0.036c-0.017,0.011 -0.033,0.013 -0.047,0.007c-0.007,-0.003 -0.014,-0.008 -0.02,-0.014c-0.007,-0.005 -0.011,-0.011 -0.012,-0.016c-0.001,-0.003 -0.002,-0.009 -0.002,-0.018c0,-0.027 0.011,-0.054 0.032,-0.083c0.015,-0.021 0.032,-0.038 0.049,-0.053c0.017,-0.015 0.029,-0.022 0.037,-0.022c0.003,-0 0.007,0.001 0.011,0.002l0.005,0.002l0.002,-0.003c0,-0.001 0.001,-0.005 0.003,-0.01c0.002,-0.005 0.004,-0.01 0.007,-0.016c0.003,-0.005 0.007,-0.015 0.013,-0.03l0.036,-0.085c0.007,-0.015 0.013,-0.031 0.02,-0.046l0.029,-0.064c0.003,-0.005 0.006,-0.009 0.007,-0.01c0.001,-0.001 0.004,-0.002 0.008,-0.002Zm-0.164,0.352l0.017,-0.035c0.003,-0.006 0.005,-0.011 0.007,-0.016c0.001,-0.004 0.002,-0.006 0.002,-0.006c0,-0.001 -0.002,0.001 -0.005,0.004c-0.004,0.004 -0.008,0.008 -0.013,0.013c-0.005,0.005 -0.009,0.011 -0.014,0.017c-0.005,0.006 -0.01,0.011 -0.013,0.016c-0.009,0.013 -0.017,0.027 -0.023,0.041c-0.006,0.014 -0.01,0.027 -0.011,0.038l-0.001,0.008l0.005,-0.005c0.001,-0.001 0.003,-0.003 0.006,-0.006c0.002,-0.003 0.004,-0.006 0.006,-0.009c0.005,-0.005 0.011,-0.014 0.018,-0.026c0.007,-0.012 0.014,-0.023 0.019,-0.034Zm0.257,-0.438c0.001,0.005 0,0.01 -0.001,0.015c-0.003,0.008 -0.008,0.017 -0.015,0.028c-0.007,0.011 -0.014,0.019 -0.019,0.023c-0.005,0.003 -0.012,0.004 -0.019,0.002c-0.005,-0.001 -0.01,-0.005 -0.015,-0.01c-0.005,-0.005 -0.009,-0.011 -0.012,-0.018c-0.003,-0.005 -0.004,-0.01 -0.005,-0.014c0,-0.003 0.001,-0.008 0.002,-0.013c0.003,-0.007 0.006,-0.015 0.011,-0.023c0.005,-0.007 0.009,-0.013 0.013,-0.017c0.002,-0.002 0.004,-0.003 0.005,-0.004c0.001,0 0.003,0 0.005,0c0.001,0 0.003,-0 0.004,-0.001c0.002,0 0.004,0 0.005,0c0.001,-0.001 0.004,-0.001 0.009,0c0.007,0.003 0.014,0.007 0.02,0.013c0.007,0.006 0.011,0.012 0.012,0.019Z" style="fill-rule:nonzero;"/></g><g transform="matrix(58.5892,0,0,58.5892,18992,12364)"><path d="M0.24,-0.189c0.001,0.002 0.001,0.003 0.001,0.004c-0.001,0.001 -0.002,0.003 -0.005,0.006c-0.007,0.008 -0.017,0.019 -0.031,0.032c-0.013,0.013 -0.028,0.027 -0.043,0.04c-0.015,0.014 -0.031,0.026 -0.046,0.037c-0.015,0.011 -0.028,0.019 -0.039,0.022c-0.004,0.001 -0.009,0.002 -0.015,0.003c-0.007,0.001 -0.011,0 -0.014,-0.001c-0.009,-0.003 -0.017,-0.008 -0.024,-0.017c-0.007,-0.008 -0.012,-0.017 -0.014,-0.027c-0.001,-0.011 0,-0.026 0.005,-0.043c0.004,-0.017 0.012,-0.035 0.023,-0.055c0.005,-0.009 0.011,-0.019 0.018,-0.031c0.007,-0.011 0.016,-0.022 0.025,-0.033c0.009,-0.01 0.018,-0.019 0.029,-0.027c0.011,-0.008 0.021,-0.013 0.032,-0.015c0.011,-0.001 0.023,0.002 0.034,0.011c0.011,0.009 0.017,0.018 0.017,0.028c0,0.009 -0.003,0.019 -0.008,0.032c-0.005,0.012 -0.011,0.024 -0.018,0.036c-0.007,0.012 -0.015,0.023 -0.024,0.032c-0.009,0.009 -0.017,0.016 -0.024,0.019c-0.003,0.002 -0.006,0.003 -0.008,0.004c-0.002,-0 -0.005,0 -0.01,0c-0.005,0 -0.01,-0.001 -0.013,-0.002c-0.004,-0.001 -0.008,-0.004 -0.013,-0.008c-0.004,-0.004 -0.006,-0.006 -0.006,-0.005c-0.001,0.001 -0.004,0.006 -0.007,0.015c-0.004,0.008 -0.007,0.015 -0.009,0.02c-0.005,0.016 -0.008,0.029 -0.008,0.038c0,0.005 0,0.007 0.001,0.008c0.001,0.001 0.003,0 0.008,-0.001c0.011,-0.004 0.024,-0.011 0.039,-0.022c0.014,-0.012 0.03,-0.024 0.045,-0.037c0.015,-0.013 0.03,-0.026 0.043,-0.04c0.014,-0.012 0.025,-0.023 0.032,-0.031c0.002,-0.003 0.005,-0.004 0.008,-0.004c0.003,0.001 0.007,0.002 0.011,0.005c0.004,0.003 0.007,0.005 0.008,0.007Zm-0.141,-0.002c-0.001,0.003 -0.003,0.006 -0.004,0.01c-0.001,0.004 -0.002,0.008 -0.003,0.012c-0.001,0.004 -0.001,0.007 -0.002,0.01c0,0.003 0,0.004 0.001,0.004l0.002,-0.001c0.001,-0 0.002,-0.001 0.005,-0.002c0.007,-0.004 0.013,-0.01 0.019,-0.018c0.007,-0.007 0.013,-0.016 0.018,-0.025c0.006,-0.009 0.011,-0.018 0.014,-0.027c0.004,-0.009 0.007,-0.018 0.009,-0.026l-0,-0.004l-0.003,0.002c-0.003,0.002 -0.007,0.006 -0.013,0.011c-0.005,0.005 -0.011,0.011 -0.017,0.017c-0.006,0.006 -0.011,0.012 -0.016,0.017c-0.005,0.005 -0.007,0.009 -0.007,0.012c-0,0.002 -0.001,0.005 -0.003,0.008Z" style="fill-rule:nonzero;"/></g><g transform="matrix(58.5892,0,0,58.5892,19001.5,12364)"><path d="M0.278,-0.21c0.001,0.003 0.001,0.005 -0.001,0.008c-0.009,0.01 -0.021,0.023 -0.037,0.039c-0.016,0.017 -0.033,0.033 -0.051,0.049c-0.018,0.017 -0.036,0.031 -0.054,0.044c-0.018,0.013 -0.033,0.021 -0.046,0.024c-0.005,0.001 -0.01,0.002 -0.015,0.001c-0.004,0 -0.008,-0.001 -0.011,-0.002c-0.005,-0.001 -0.008,-0.003 -0.011,-0.005c-0.003,-0.002 -0.008,-0.006 -0.014,-0.012c-0.006,-0.006 -0.01,-0.012 -0.012,-0.017l-0.004,-0.008l-0,-0.021c-0,-0.017 0.002,-0.034 0.006,-0.052c0.005,-0.018 0.011,-0.035 0.019,-0.052c0.008,-0.016 0.018,-0.031 0.03,-0.044c0.012,-0.013 0.026,-0.024 0.042,-0.031c0.008,-0.003 0.015,-0.005 0.021,-0.005c0.018,-0 0.033,0.007 0.044,0.02c0.012,0.013 0.018,0.029 0.018,0.046l0.001,0.011l-0.006,0.001c-0.003,-0 -0.007,-0.001 -0.012,-0.002c-0.004,-0.002 -0.008,-0.005 -0.011,-0.009c-0.003,-0.004 -0.008,-0.011 -0.013,-0.02c-0.001,-0.001 -0.004,-0 -0.008,0.003c-0.012,0.008 -0.023,0.018 -0.034,0.03c-0.011,0.013 -0.021,0.026 -0.029,0.041c-0.008,0.015 -0.014,0.031 -0.019,0.047c-0.005,0.016 -0.007,0.031 -0.007,0.045c0,0.005 0,0.007 0.001,0.008c0.001,0.001 0.004,-0 0.011,-0.003c0.006,-0.002 0.012,-0.005 0.018,-0.008c0.017,-0.009 0.036,-0.021 0.056,-0.037c0.019,-0.016 0.044,-0.04 0.075,-0.071c0.011,-0.011 0.02,-0.019 0.025,-0.024c0.005,-0.005 0.008,-0.007 0.009,-0.007c0.003,-0 0.007,0.001 0.011,0.004c0.004,0.003 0.007,0.006 0.008,0.009Z" style="fill-rule:nonzero;"/></g><g transform="matrix(58.5892,0,0,58.5892,19012.6,12364)"><path d="M0.227,-0.394c0.003,0.003 0.005,0.006 0.007,0.01c0.003,0.004 0.004,0.007 0.004,0.009l-0,0.004l-0.013,-0.001l-0.021,0l-0.008,0.001l-0.013,0.026c-0.019,0.04 -0.035,0.076 -0.049,0.109c-0.015,0.033 -0.027,0.064 -0.036,0.092c-0.001,0.001 -0.001,0.002 -0.001,0.003c0,0.001 0.001,0 0.002,-0.002l0.023,-0.029c0.016,-0.021 0.027,-0.036 0.034,-0.044c0.006,-0.008 0.01,-0.012 0.011,-0.012c0.003,-0 0.007,0.001 0.012,0.004c0.005,0.003 0.009,0.006 0.01,0.009c0.001,0.001 0.001,0.003 -0,0.004c-0.001,0.002 -0.005,0.008 -0.012,0.017c-0.006,0.009 -0.016,0.023 -0.031,0.042c-0.014,0.019 -0.029,0.04 -0.045,0.062c-0.007,0.009 -0.012,0.017 -0.016,0.022c-0.004,0.006 -0.008,0.01 -0.011,0.013c-0.003,0.003 -0.005,0.005 -0.008,0.006c-0.003,0.001 -0.006,0.002 -0.009,0.002c-0.003,0.001 -0.008,-0 -0.013,-0.003c-0.005,-0.002 -0.01,-0.006 -0.015,-0.011c-0.005,-0.005 -0.009,-0.01 -0.01,-0.013c-0.001,-0.004 -0.001,-0.011 0,-0.021c0.002,-0.01 0.005,-0.022 0.009,-0.036c0.004,-0.014 0.009,-0.03 0.014,-0.047c0.006,-0.017 0.013,-0.035 0.02,-0.053c0.003,-0.008 0.007,-0.017 0.011,-0.027c0.005,-0.01 0.009,-0.02 0.013,-0.03c0.005,-0.01 0.009,-0.02 0.013,-0.029c0.005,-0.009 0.009,-0.017 0.012,-0.024c0.003,-0.005 0.004,-0.009 0.005,-0.011c0.001,-0.001 0.001,-0.003 0.002,-0.004c-0,-0.001 -0.003,-0 -0.008,0.001c-0.012,0.004 -0.021,0.003 -0.028,-0.004c-0.002,-0.002 -0.004,-0.005 -0.006,-0.01c-0.002,-0.004 -0.003,-0.007 -0.003,-0.009c-0,-0.002 0,-0.003 0,-0.004c0.001,-0.001 0.003,-0.002 0.006,-0.003c0.005,-0.002 0.012,-0.004 0.021,-0.007c0.009,-0.002 0.018,-0.004 0.025,-0.005l0.015,-0.003l0.015,-0.028c0.007,-0.015 0.014,-0.026 0.019,-0.035c0.006,-0.009 0.01,-0.015 0.011,-0.016c0.003,-0.003 0.009,-0.002 0.016,0.002c0.008,0.004 0.015,0.01 0.02,0.017c0.005,0.007 0.007,0.012 0.007,0.017c-0.001,0.004 -0.004,0.013 -0.011,0.026l-0.007,0.016l0.006,0.002c0.004,0.001 0.008,0.002 0.011,0.005Z" style="fill-rule:nonzero;"/></g><g transform="matrix(58.5892,0,0,58.5892,19029.4,12364)"><path d="M0.936,-0.491c0.003,0.003 0.006,0.007 0.009,0.012c0.003,0.005 0.005,0.009 0.005,0.012c-0,0.003 -0,0.005 -0.001,0.006c-0.001,0.001 -0.003,0.004 -0.006,0.007c-0.009,0.011 -0.02,0.025 -0.031,0.04c-0.011,0.015 -0.022,0.032 -0.033,0.049c-0.011,0.017 -0.022,0.035 -0.033,0.054c-0.011,0.019 -0.022,0.038 -0.032,0.057c-0.016,0.03 -0.031,0.062 -0.046,0.095c-0.015,0.033 -0.028,0.066 -0.039,0.097c-0.012,0.031 -0.022,0.06 -0.029,0.086c-0.008,0.027 -0.013,0.048 -0.014,0.063l0,0.011l0.003,0.004c0.005,0.005 0.008,0.01 0.008,0.014c0,0.001 -0.002,0.002 -0.007,0.001c-0.005,0 -0.009,-0.001 -0.012,-0.003c-0.006,-0.003 -0.011,-0.008 -0.016,-0.015c-0.005,-0.006 -0.008,-0.013 -0.011,-0.02c-0.003,-0.011 -0.003,-0.027 0.001,-0.048c0.003,-0.021 0.011,-0.05 0.022,-0.086c0.009,-0.033 0.02,-0.063 0.032,-0.092c0.012,-0.029 0.025,-0.058 0.038,-0.086c0.003,-0.004 0.005,-0.008 0.006,-0.013c0.001,-0.002 0.002,-0.004 0.003,-0.006c-0.001,0 -0.005,0.004 -0.012,0.012c-0.008,0.007 -0.017,0.017 -0.028,0.028c-0.01,0.01 -0.021,0.021 -0.033,0.034c-0.013,0.012 -0.025,0.024 -0.037,0.035c-0.012,0.011 -0.023,0.022 -0.034,0.033c-0.011,0.01 -0.019,0.018 -0.026,0.024c-0.027,0.023 -0.049,0.042 -0.067,0.055c-0.018,0.013 -0.034,0.021 -0.047,0.026c-0.005,0.001 -0.012,0.002 -0.019,0.002c-0.008,0 -0.015,-0.001 -0.02,-0.002c-0.008,-0.002 -0.016,-0.007 -0.023,-0.014c-0.007,-0.007 -0.014,-0.016 -0.019,-0.027c-0.005,-0.009 -0.008,-0.016 -0.009,-0.021c-0.001,-0.005 -0.002,-0.014 -0.002,-0.025c0.001,-0.011 0.002,-0.022 0.004,-0.033c0.001,-0.011 0.004,-0.024 0.007,-0.038c0.001,-0.007 0.002,-0.012 0.003,-0.013c0.001,-0.002 0,-0.002 -0.001,-0.001c-0.001,0.001 -0.006,0.009 -0.016,0.023c-0.01,0.013 -0.022,0.029 -0.036,0.048c-0.024,0.033 -0.045,0.061 -0.062,0.085c-0.018,0.023 -0.033,0.043 -0.046,0.06c-0.013,0.017 -0.025,0.032 -0.034,0.043c-0.01,0.011 -0.019,0.021 -0.027,0.03c-0.005,0.005 -0.011,0.01 -0.016,0.015c-0.005,0.005 -0.01,0.009 -0.013,0.01c-0.002,0.001 -0.006,0.002 -0.011,0.002c-0.006,0.001 -0.01,0.001 -0.013,0c-0.006,-0.001 -0.012,-0.005 -0.019,-0.011c-0.007,-0.006 -0.012,-0.013 -0.017,-0.02c-0.003,-0.005 -0.005,-0.01 -0.006,-0.013c-0.001,-0.003 -0,-0.007 0.001,-0.013c0.003,-0.017 0.013,-0.048 0.03,-0.091c0.017,-0.044 0.042,-0.103 0.076,-0.178c0.01,-0.022 0.019,-0.042 0.028,-0.06c0.008,-0.019 0.015,-0.035 0.021,-0.048c0.006,-0.014 0.011,-0.025 0.014,-0.033c0.003,-0.008 0.004,-0.012 0.004,-0.012c0,0 -0.001,0.001 -0.004,0.004c-0.003,0.003 -0.007,0.006 -0.011,0.011c-0.004,0.005 -0.008,0.01 -0.012,0.015c-0.005,0.005 -0.009,0.009 -0.012,0.013c-0.03,0.037 -0.054,0.075 -0.073,0.114c-0.009,0.017 -0.015,0.032 -0.019,0.045c-0.004,0.013 -0.007,0.024 -0.008,0.035l0,0.011l0.006,0.006c0.006,0.006 0.009,0.011 0.009,0.015c0,0.001 -0.002,0.001 -0.006,0.001c-0.008,0 -0.016,-0.005 -0.025,-0.014c-0.005,-0.005 -0.01,-0.01 -0.013,-0.017c-0.003,-0.007 -0.006,-0.013 -0.007,-0.019c-0.002,-0.017 0.002,-0.039 0.012,-0.067c0.005,-0.015 0.013,-0.031 0.023,-0.048c0.009,-0.017 0.02,-0.035 0.031,-0.052c0.011,-0.018 0.024,-0.035 0.037,-0.051c0.013,-0.016 0.025,-0.03 0.037,-0.042c0.015,-0.015 0.027,-0.025 0.035,-0.028c0.007,-0.003 0.015,-0.003 0.024,0c0.011,0.004 0.019,0.01 0.026,0.019c0.007,0.008 0.01,0.017 0.011,0.028c0,0.006 -0.001,0.014 -0.003,0.025c-0.003,0.011 -0.007,0.025 -0.013,0.042c-0.007,0.017 -0.015,0.039 -0.026,0.064c-0.011,0.025 -0.024,0.056 -0.039,0.091c-0.009,0.021 -0.018,0.041 -0.026,0.06c-0.009,0.02 -0.016,0.038 -0.023,0.053c-0.007,0.015 -0.012,0.028 -0.015,0.037c-0.004,0.01 -0.006,0.015 -0.006,0.015c0.001,0.001 0.005,-0.004 0.013,-0.014c0.007,-0.009 0.017,-0.022 0.029,-0.037c0.008,-0.01 0.017,-0.022 0.027,-0.035c0.009,-0.013 0.022,-0.029 0.037,-0.05c0.015,-0.02 0.034,-0.045 0.056,-0.075c0.022,-0.029 0.049,-0.066 0.081,-0.109c0.007,-0.009 0.014,-0.019 0.022,-0.029c0.007,-0.01 0.015,-0.02 0.022,-0.029c0.007,-0.01 0.013,-0.019 0.019,-0.027c0.005,-0.008 0.01,-0.014 0.014,-0.019c0.007,-0.01 0.014,-0.019 0.021,-0.028c0.007,-0.009 0.011,-0.016 0.012,-0.019c0.011,-0.019 0.021,-0.035 0.03,-0.048c0.009,-0.014 0.017,-0.026 0.024,-0.036c0.007,-0.01 0.013,-0.018 0.019,-0.025c0.005,-0.007 0.011,-0.014 0.016,-0.02c0.005,-0.005 0.008,-0.008 0.01,-0.008c0.002,-0.001 0.005,0 0.01,0.003c0.008,0.003 0.015,0.009 0.021,0.017c0.006,0.007 0.009,0.014 0.009,0.021c0,0.002 -0.001,0.005 -0.003,0.01c-0.003,0.005 -0.007,0.011 -0.012,0.02c-0.006,0.009 -0.014,0.02 -0.023,0.034c-0.01,0.013 -0.023,0.03 -0.038,0.05c-0.008,0.011 -0.016,0.022 -0.023,0.033c-0.007,0.011 -0.012,0.018 -0.014,0.021c-0.005,0.008 -0.01,0.018 -0.015,0.029c-0.005,0.011 -0.011,0.022 -0.016,0.035c-0.006,0.012 -0.012,0.024 -0.017,0.037c-0.006,0.012 -0.011,0.023 -0.015,0.034c-0.017,0.042 -0.029,0.079 -0.037,0.11c-0.009,0.031 -0.013,0.058 -0.012,0.079l0,0.004l0.005,-0.001c0.015,-0.005 0.035,-0.017 0.058,-0.034c0.023,-0.018 0.052,-0.044 0.088,-0.078c0.006,-0.006 0.017,-0.017 0.033,-0.032c0.015,-0.015 0.032,-0.032 0.051,-0.051c0.019,-0.019 0.037,-0.037 0.056,-0.056c0.018,-0.019 0.033,-0.034 0.044,-0.046c0.014,-0.014 0.025,-0.025 0.034,-0.034c0.009,-0.01 0.017,-0.018 0.024,-0.026c0.007,-0.007 0.014,-0.015 0.022,-0.023c0.007,-0.008 0.017,-0.018 0.029,-0.031c0.013,-0.013 0.023,-0.023 0.032,-0.032c0.009,-0.009 0.013,-0.014 0.014,-0.014c0.002,0 0.005,0.001 0.01,0.004c0.005,0.003 0.008,0.005 0.011,0.008Z" style="fill-rule:nonzero;"/></g><g transform="matrix(58.5892,0,0,58.5892,19073.9,12364)"><path d="M0.297,-0.216c0.003,-0.001 0.008,0.001 0.014,0.005c0.005,0.004 0.008,0.007 0.008,0.01c0,0.001 -0.004,0.007 -0.012,0.017c-0.007,0.01 -0.017,0.023 -0.028,0.038c-0.023,0.03 -0.04,0.052 -0.052,0.066c-0.012,0.014 -0.021,0.023 -0.028,0.028c-0.005,0.003 -0.01,0.005 -0.015,0.005c-0.004,0.001 -0.007,0.001 -0.008,0c-0.001,0 -0.004,-0.001 -0.007,-0.002c-0.001,-0.001 -0.003,-0.003 -0.004,-0.004c-0.002,-0.001 -0.004,-0.001 -0.005,-0.002c-0.002,-0.003 -0.004,-0.006 -0.007,-0.011c-0.003,-0.004 -0.006,-0.007 -0.007,-0.01c-0.001,-0.003 -0.002,-0.009 -0.002,-0.016c0,-0.007 0.001,-0.014 0.002,-0.021c0.001,-0.003 0.001,-0.006 0.001,-0.009c0.001,-0.001 0.001,-0.002 0.001,-0.003c-0.001,0 -0.004,0.003 -0.009,0.009c-0.004,0.005 -0.009,0.01 -0.015,0.016c-0.006,0.006 -0.012,0.012 -0.019,0.017c-0.007,0.005 -0.013,0.01 -0.02,0.013c-0.007,0.004 -0.014,0.006 -0.021,0.007c-0.004,0.001 -0.007,0.001 -0.009,0c-0.002,0 -0.005,-0.001 -0.008,-0.003c-0.005,-0.003 -0.01,-0.007 -0.015,-0.012c-0.005,-0.005 -0.008,-0.009 -0.011,-0.014c-0.001,-0.003 -0.002,-0.006 -0.002,-0.009c-0.001,-0.002 -0.001,-0.006 -0.001,-0.011c0,-0.012 0.003,-0.028 0.01,-0.049c0.007,-0.02 0.016,-0.04 0.027,-0.06c0.011,-0.019 0.023,-0.036 0.037,-0.051c0.013,-0.014 0.027,-0.021 0.041,-0.021c0.012,0 0.024,0.005 0.037,0.014c0.013,0.01 0.02,0.021 0.023,0.033c0,0.002 0,0.002 0.001,0.001c0.001,-0.001 0.003,-0.005 0.008,-0.013c0.009,-0.015 0.015,-0.025 0.019,-0.03c0.004,-0.004 0.008,-0.006 0.011,-0.005c0.006,0.001 0.012,0.004 0.018,0.008c0.005,0.005 0.01,0.01 0.013,0.015c0.003,0.005 0.003,0.009 0,0.012c-0.005,0.007 -0.01,0.018 -0.017,0.032c-0.007,0.014 -0.014,0.029 -0.021,0.044c-0.007,0.016 -0.014,0.031 -0.019,0.046c-0.006,0.015 -0.01,0.027 -0.013,0.036l-0.002,0.009l0.005,-0.004c0.003,-0.002 0.007,-0.007 0.013,-0.014c0.006,-0.007 0.013,-0.015 0.021,-0.025c0.008,-0.009 0.017,-0.02 0.026,-0.031c0.009,-0.011 0.017,-0.021 0.025,-0.032c0.004,-0.005 0.008,-0.01 0.011,-0.014c0.003,-0.003 0.004,-0.005 0.005,-0.005Zm-0.122,0.002c0.003,-0.003 0.005,-0.005 0.006,-0.008c0.001,-0.001 0.001,-0.002 0.002,-0.003l-0.001,-0.001c0,-0 -0.001,-0.001 -0.004,-0.002c-0.005,-0.002 -0.011,-0.007 -0.017,-0.015c-0.003,-0.004 -0.005,-0.006 -0.006,-0.005c-0.001,0.001 -0.006,0.004 -0.013,0.011c-0.012,0.013 -0.024,0.028 -0.035,0.047c-0.011,0.019 -0.021,0.04 -0.03,0.061c-0.003,0.008 -0.006,0.015 -0.008,0.022c-0.003,0.007 -0.004,0.012 -0.004,0.013c0,0.001 0.001,0.001 0.002,-0c0.001,-0.001 0.005,-0.004 0.01,-0.007c0.009,-0.007 0.019,-0.016 0.03,-0.027c0.01,-0.011 0.023,-0.028 0.039,-0.049c0.005,-0.007 0.011,-0.015 0.017,-0.022c0.005,-0.007 0.009,-0.012 0.012,-0.015Z" style="fill-rule:nonzero;"/></g><g transform="matrix(58.5892,0,0,58.5892,19087.8,12364)"><path d="M0.238,-0.294c0.011,0.011 0.014,0.023 0.008,0.035c-0.001,0.002 -0.004,0.007 -0.008,0.014c-0.003,0.007 -0.007,0.014 -0.012,0.021c-0.019,0.031 -0.034,0.059 -0.045,0.085c-0.01,0.026 -0.02,0.055 -0.029,0.086c-0.005,0.021 -0.009,0.042 -0.012,0.062c-0.003,0.02 -0.003,0.036 -0.002,0.048c0.001,0.004 0.001,0.007 0.002,0.008c0.001,0.001 0.003,0.004 0.006,0.007c0.004,0.005 0.006,0.008 0.006,0.008c-0.001,0.001 -0.003,0.001 -0.006,0.002c-0.003,0.001 -0.005,0.002 -0.007,0.002c-0.001,-0 -0.003,-0 -0.004,-0.001c-0.002,-0.001 -0.004,-0.001 -0.006,-0.002c-0.004,-0.002 -0.008,-0.005 -0.013,-0.009c-0.005,-0.003 -0.009,-0.007 -0.012,-0.01c-0.005,-0.007 -0.009,-0.015 -0.011,-0.024c-0.002,-0.009 -0.002,-0.023 -0.001,-0.041c0.001,-0.029 0.005,-0.06 0.013,-0.091c0.007,-0.031 0.017,-0.059 0.03,-0.084l0.004,-0.008l-0.004,0.004c-0.006,0.005 -0.014,0.015 -0.025,0.028c-0.011,0.013 -0.02,0.026 -0.028,0.039c-0.005,0.007 -0.011,0.017 -0.019,0.03c-0.008,0.013 -0.014,0.024 -0.018,0.031c-0.003,0.005 -0.009,0.008 -0.016,0.008c-0.005,-0 -0.01,-0.002 -0.015,-0.007c-0.005,-0.004 -0.01,-0.009 -0.013,-0.016c-0.001,-0.003 -0.002,-0.006 -0.002,-0.007c-0.001,-0.001 -0.001,-0.005 0,-0.01c0.002,-0.014 0.006,-0.03 0.012,-0.049c0.005,-0.018 0.012,-0.036 0.02,-0.054c0.008,-0.019 0.017,-0.037 0.026,-0.053c0.009,-0.018 0.017,-0.031 0.025,-0.042c0.003,-0.005 0.006,-0.008 0.007,-0.009c0.001,-0.001 0.002,-0.001 0.005,0c0.007,0.001 0.015,0.006 0.022,0.013c0.007,0.008 0.011,0.016 0.011,0.023c0,0.003 -0.002,0.009 -0.007,0.018c-0.001,0.004 -0.003,0.008 -0.004,0.011c-0.002,0.004 -0.003,0.007 -0.004,0.008c-0.001,0.003 -0.001,0.003 0.002,0c0.003,-0.002 0.009,-0.008 0.02,-0.019c0.016,-0.016 0.031,-0.03 0.045,-0.041c0.013,-0.011 0.024,-0.019 0.031,-0.023c0.004,-0.002 0.007,-0.003 0.01,-0.002c0.007,0.002 0.013,0.006 0.018,0.011Z" style="fill-rule:nonzero;"/></g><g transform="matrix(58.5892,0,0,58.5892,19098.8,12364)"><path d="M0.297,-0.216c0.003,-0.001 0.008,0.001 0.014,0.005c0.005,0.004 0.008,0.007 0.008,0.01c0,0.001 -0.004,0.007 -0.012,0.017c-0.007,0.01 -0.017,0.023 -0.028,0.038c-0.023,0.03 -0.04,0.052 -0.052,0.066c-0.012,0.014 -0.021,0.023 -0.028,0.028c-0.005,0.003 -0.01,0.005 -0.015,0.005c-0.004,0.001 -0.007,0.001 -0.008,0c-0.001,0 -0.004,-0.001 -0.007,-0.002c-0.001,-0.001 -0.003,-0.003 -0.004,-0.004c-0.002,-0.001 -0.004,-0.001 -0.005,-0.002c-0.002,-0.003 -0.004,-0.006 -0.007,-0.011c-0.003,-0.004 -0.006,-0.007 -0.007,-0.01c-0.001,-0.003 -0.002,-0.009 -0.002,-0.016c0,-0.007 0.001,-0.014 0.002,-0.021c0.001,-0.003 0.001,-0.006 0.001,-0.009c0.001,-0.001 0.001,-0.002 0.001,-0.003c-0.001,0 -0.004,0.003 -0.009,0.009c-0.004,0.005 -0.009,0.01 -0.015,0.016c-0.006,0.006 -0.012,0.012 -0.019,0.017c-0.007,0.005 -0.013,0.01 -0.02,0.013c-0.007,0.004 -0.014,0.006 -0.021,0.007c-0.004,0.001 -0.007,0.001 -0.009,0c-0.002,0 -0.005,-0.001 -0.008,-0.003c-0.005,-0.003 -0.01,-0.007 -0.015,-0.012c-0.005,-0.005 -0.008,-0.009 -0.011,-0.014c-0.001,-0.003 -0.002,-0.006 -0.002,-0.009c-0.001,-0.002 -0.001,-0.006 -0.001,-0.011c0,-0.012 0.003,-0.028 0.01,-0.049c0.007,-0.02 0.016,-0.04 0.027,-0.06c0.011,-0.019 0.023,-0.036 0.037,-0.051c0.013,-0.014 0.027,-0.021 0.041,-0.021c0.012,0 0.024,0.005 0.037,0.014c0.013,0.01 0.02,0.021 0.023,0.033c0,0.002 0,0.002 0.001,0.001c0.001,-0.001 0.003,-0.005 0.008,-0.013c0.009,-0.015 0.015,-0.025 0.019,-0.03c0.004,-0.004 0.008,-0.006 0.011,-0.005c0.006,0.001 0.012,0.004 0.018,0.008c0.005,0.005 0.01,0.01 0.013,0.015c0.003,0.005 0.003,0.009 0,0.012c-0.005,0.007 -0.01,0.018 -0.017,0.032c-0.007,0.014 -0.014,0.029 -0.021,0.044c-0.007,0.016 -0.014,0.031 -0.019,0.046c-0.006,0.015 -0.01,0.027 -0.013,0.036l-0.002,0.009l0.005,-0.004c0.003,-0.002 0.007,-0.007 0.013,-0.014c0.006,-0.007 0.013,-0.015 0.021,-0.025c0.008,-0.009 0.017,-0.02 0.026,-0.031c0.009,-0.011 0.017,-0.021 0.025,-0.032c0.004,-0.005 0.008,-0.01 0.011,-0.014c0.003,-0.003 0.004,-0.005 0.005,-0.005Zm-0.122,0.002c0.003,-0.003 0.005,-0.005 0.006,-0.008c0.001,-0.001 0.001,-0.002 0.002,-0.003l-0.001,-0.001c0,-0 -0.001,-0.001 -0.004,-0.002c-0.005,-0.002 -0.011,-0.007 -0.017,-0.015c-0.003,-0.004 -0.005,-0.006 -0.006,-0.005c-0.001,0.001 -0.006,0.004 -0.013,0.011c-0.012,0.013 -0.024,0.028 -0.035,0.047c-0.011,0.019 -0.021,0.04 -0.03,0.061c-0.003,0.008 -0.006,0.015 -0.008,0.022c-0.003,0.007 -0.004,0.012 -0.004,0.013c0,0.001 0.001,0.001 0.002,-0c0.001,-0.001 0.005,-0.004 0.01,-0.007c0.009,-0.007 0.019,-0.016 0.03,-0.027c0.01,-0.011 0.023,-0.028 0.039,-0.049c0.005,-0.007 0.011,-0.015 0.017,-0.022c0.005,-0.007 0.009,-0.012 0.012,-0.015Z" style="fill-rule:nonzero;"/></g><g transform="matrix(58.5892,0,0,58.5892,19112.7,12364)"><path d="M0.248,-0.291c0.006,0.003 0.011,0.008 0.016,0.014c0.005,0.007 0.007,0.013 0.007,0.018c0,0.003 -0.001,0.008 -0.003,0.015c-0.001,0.007 -0.004,0.017 -0.009,0.029c-0.004,0.013 -0.01,0.028 -0.017,0.047c-0.007,0.019 -0.016,0.043 -0.027,0.07c-0.005,0.011 -0.01,0.024 -0.014,0.037c-0.005,0.013 -0.009,0.024 -0.012,0.031c-0.013,0.035 -0.026,0.063 -0.038,0.086c-0.012,0.023 -0.025,0.044 -0.039,0.063c-0.007,0.009 -0.016,0.019 -0.025,0.029c-0.01,0.01 -0.018,0.017 -0.024,0.02c-0.006,0.003 -0.012,0.006 -0.019,0.008c-0.007,0.002 -0.014,0.002 -0.019,0.001c-0.005,-0.001 -0.01,-0.003 -0.014,-0.006c-0.004,-0.003 -0.009,-0.006 -0.014,-0.011c-0.007,-0.007 -0.012,-0.014 -0.014,-0.021c-0.003,-0.007 -0.003,-0.015 -0.002,-0.026c0.003,-0.014 0.008,-0.029 0.016,-0.044c0.008,-0.015 0.018,-0.028 0.029,-0.039c0.018,-0.017 0.034,-0.025 0.049,-0.024c0.004,0.001 0.008,0.001 0.012,0.002c0.004,0.001 0.007,0.003 0.01,0.005l0.004,0.002c0.001,-0 0.002,-0.001 0.003,-0.004c0.001,-0.002 0.002,-0.006 0.005,-0.012c0.003,-0.006 0.006,-0.015 0.011,-0.026c0.005,-0.011 0.011,-0.026 0.018,-0.044c0.007,-0.016 0.012,-0.028 0.015,-0.036c0.003,-0.008 0.004,-0.013 0.004,-0.015c-0.001,-0.001 -0.003,-0 -0.006,0.004c-0.004,0.004 -0.01,0.01 -0.018,0.017c-0.017,0.015 -0.03,0.027 -0.04,0.035c-0.01,0.008 -0.019,0.013 -0.026,0.015c-0.011,0.003 -0.021,0.002 -0.03,-0.003c-0.004,-0.002 -0.008,-0.006 -0.013,-0.011c-0.005,-0.005 -0.009,-0.011 -0.012,-0.016c-0.002,-0.004 -0.003,-0.007 -0.004,-0.01c-0.001,-0.002 -0.001,-0.005 -0.001,-0.009c-0.001,-0.013 0.002,-0.029 0.009,-0.048c0.007,-0.019 0.018,-0.038 0.031,-0.057c0.011,-0.017 0.022,-0.031 0.032,-0.042c0.01,-0.01 0.02,-0.018 0.029,-0.023c0.005,-0.002 0.008,-0.003 0.01,-0.004c0.002,-0.001 0.005,-0.001 0.009,-0.001c0.003,-0 0.006,0 0.008,0.001c0.002,0.001 0.005,0.002 0.01,0.005c0.018,0.009 0.03,0.024 0.035,0.045c0.001,0.007 0.002,0.011 0.001,0.012c-0.001,0.001 -0.003,0.002 -0.007,0.001c-0.009,-0.002 -0.016,-0.007 -0.022,-0.016c-0.001,-0.003 -0.003,-0.004 -0.004,-0.004c-0.001,-0 -0.005,0.002 -0.011,0.007c-0.007,0.005 -0.015,0.013 -0.024,0.024c-0.009,0.011 -0.017,0.023 -0.024,0.036c-0.003,0.005 -0.006,0.012 -0.01,0.019c-0.004,0.008 -0.007,0.015 -0.01,0.022c-0.003,0.007 -0.006,0.013 -0.008,0.018c-0.002,0.005 -0.003,0.009 -0.003,0.01c0.001,0.002 0.007,-0.001 0.019,-0.01c0.012,-0.009 0.025,-0.019 0.038,-0.032c0.004,-0.003 0.01,-0.009 0.019,-0.017c0.008,-0.007 0.016,-0.015 0.025,-0.024c0.008,-0.009 0.016,-0.017 0.023,-0.024c0.007,-0.007 0.012,-0.012 0.014,-0.015c0.003,-0.003 0.006,-0.007 0.009,-0.013c0.003,-0.005 0.007,-0.014 0.012,-0.027c0.005,-0.009 0.009,-0.017 0.012,-0.024c0.003,-0.007 0.004,-0.01 0.005,-0.011c0.002,-0.003 0.007,-0.002 0.014,0.001Zm-0.174,0.363c0.002,-0.003 0.004,-0.007 0.007,-0.012c0.003,-0.005 0.005,-0.009 0.007,-0.014l0.007,-0.016c-0.001,-0 -0.004,0.001 -0.008,0.004c-0.004,0.003 -0.009,0.006 -0.014,0.009c-0.021,0.017 -0.035,0.042 -0.043,0.075c-0.001,0.004 -0.002,0.007 -0.003,0.01c-0.001,0.003 -0.001,0.004 -0.001,0.005c0,0.003 0.003,0.001 0.009,-0.006c0.007,-0.007 0.014,-0.016 0.021,-0.026c0.007,-0.009 0.013,-0.019 0.018,-0.029Z" style="fill-rule:nonzero;"/></g><g transform="matrix(58.5892,0,0,58.5892,19126.1,12364)"><path d="M0.24,-0.189c0.001,0.002 0.001,0.003 0.001,0.004c-0.001,0.001 -0.002,0.003 -0.005,0.006c-0.007,0.008 -0.017,0.019 -0.031,0.032c-0.013,0.013 -0.028,0.027 -0.043,0.04c-0.015,0.014 -0.031,0.026 -0.046,0.037c-0.015,0.011 -0.028,0.019 -0.039,0.022c-0.004,0.001 -0.009,0.002 -0.015,0.003c-0.007,0.001 -0.011,0 -0.014,-0.001c-0.009,-0.003 -0.017,-0.008 -0.024,-0.017c-0.007,-0.008 -0.012,-0.017 -0.014,-0.027c-0.001,-0.011 0,-0.026 0.005,-0.043c0.004,-0.017 0.012,-0.035 0.023,-0.055c0.005,-0.009 0.011,-0.019 0.018,-0.031c0.007,-0.011 0.016,-0.022 0.025,-0.033c0.009,-0.01 0.018,-0.019 0.029,-0.027c0.011,-0.008 0.021,-0.013 0.032,-0.015c0.011,-0.001 0.023,0.002 0.034,0.011c0.011,0.009 0.017,0.018 0.017,0.028c0,0.009 -0.003,0.019 -0.008,0.032c-0.005,0.012 -0.011,0.024 -0.018,0.036c-0.007,0.012 -0.015,0.023 -0.024,0.032c-0.009,0.009 -0.017,0.016 -0.024,0.019c-0.003,0.002 -0.006,0.003 -0.008,0.004c-0.002,-0 -0.005,0 -0.01,0c-0.005,0 -0.01,-0.001 -0.013,-0.002c-0.004,-0.001 -0.008,-0.004 -0.013,-0.008c-0.004,-0.004 -0.006,-0.006 -0.006,-0.005c-0.001,0.001 -0.004,0.006 -0.007,0.015c-0.004,0.008 -0.007,0.015 -0.009,0.02c-0.005,0.016 -0.008,0.029 -0.008,0.038c0,0.005 0,0.007 0.001,0.008c0.001,0.001 0.003,0 0.008,-0.001c0.011,-0.004 0.024,-0.011 0.039,-0.022c0.014,-0.012 0.03,-0.024 0.045,-0.037c0.015,-0.013 0.03,-0.026 0.043,-0.04c0.014,-0.012 0.025,-0.023 0.032,-0.031c0.002,-0.003 0.005,-0.004 0.008,-0.004c0.003,0.001 0.007,0.002 0.011,0.005c0.004,0.003 0.007,0.005 0.008,0.007Zm-0.141,-0.002c-0.001,0.003 -0.003,0.006 -0.004,0.01c-0.001,0.004 -0.002,0.008 -0.003,0.012c-0.001,0.004 -0.001,0.007 -0.002,0.01c0,0.003 0,0.004 0.001,0.004l0.002,-0.001c0.001,-0 0.002,-0.001 0.005,-0.002c0.007,-0.004 0.013,-0.01 0.019,-0.018c0.007,-0.007 0.013,-0.016 0.018,-0.025c0.006,-0.009 0.011,-0.018 0.014,-0.027c0.004,-0.009 0.007,-0.018 0.009,-0.026l-0,-0.004l-0.003,0.002c-0.003,0.002 -0.007,0.006 -0.013,0.011c-0.005,0.005 -0.011,0.011 -0.017,0.017c-0.006,0.006 -0.011,0.012 -0.016,0.017c-0.005,0.005 -0.007,0.009 -0.007,0.012c-0,0.002 -0.001,0.005 -0.003,0.008Z" style="fill-rule:nonzero;"/></g><g transform="matrix(58.5892,0,0,58.5892,19135.6,12364)"><path d="M0.319,-0.309c0.003,0.002 0.007,0.005 0.011,0.01c0.004,0.005 0.006,0.009 0.006,0.012c0,0.001 -0.002,0.004 -0.005,0.008c-0.003,0.005 -0.006,0.012 -0.01,0.019c-0.011,0.017 -0.02,0.034 -0.029,0.05c-0.008,0.016 -0.015,0.032 -0.022,0.048c-0.007,0.016 -0.013,0.033 -0.018,0.05c-0.006,0.017 -0.012,0.036 -0.017,0.056c-0.003,0.013 -0.006,0.027 -0.009,0.041c-0.003,0.015 -0.006,0.027 -0.007,0.036c-0.001,0.007 -0.002,0.014 -0.002,0.021c0,0.007 0.001,0.013 0.002,0.016c0.001,0.002 -0.001,0.003 -0.004,0.004c-0.003,0.001 -0.006,0.001 -0.01,-0c-0.003,-0.001 -0.006,-0.003 -0.007,-0.004c-0.002,-0.001 -0.005,-0.003 -0.009,-0.006c-0.003,-0.003 -0.006,-0.007 -0.007,-0.01c-0.002,-0.003 -0.004,-0.008 -0.005,-0.013c-0.001,-0.006 -0,-0.015 0.001,-0.028c0.001,-0.012 0.002,-0.026 0.005,-0.041c0.003,-0.015 0.006,-0.03 0.01,-0.046c0.003,-0.016 0.007,-0.031 0.012,-0.044c0.001,-0.002 0.002,-0.004 0.003,-0.006c-0,-0.002 0,-0.004 0.001,-0.005c0,-0.001 0,-0.003 0.001,-0.004c-0.002,0.002 -0.004,0.004 -0.006,0.007c-0.001,0.003 -0.003,0.005 -0.005,0.008c-0.003,0.003 -0.005,0.007 -0.008,0.01c-0.009,0.011 -0.015,0.02 -0.02,0.026c-0.005,0.007 -0.009,0.011 -0.012,0.014c-0.003,0.003 -0.006,0.004 -0.008,0.004c-0.003,0.001 -0.006,0.001 -0.009,0.001c-0.014,-0.001 -0.026,-0.011 -0.035,-0.029c-0.001,-0.003 -0.002,-0.006 -0.003,-0.008c-0.001,-0.001 -0.001,-0.004 -0.001,-0.008c0.001,-0.009 0.004,-0.022 0.008,-0.039c0.001,-0.002 -0.001,-0.001 -0.004,0.003c-0.003,0.005 -0.007,0.01 -0.012,0.017c-0.005,0.007 -0.01,0.015 -0.015,0.024c-0.006,0.009 -0.011,0.017 -0.016,0.025c-0.011,0.019 -0.019,0.031 -0.023,0.037c-0.004,0.006 -0.006,0.009 -0.007,0.01c-0.004,0.003 -0.01,0.002 -0.018,-0.003c-0.008,-0.003 -0.015,-0.01 -0.022,-0.019l-0.003,-0.005l0.002,-0.012c0.001,-0.005 0.002,-0.012 0.005,-0.021c0.003,-0.008 0.006,-0.017 0.01,-0.027c0.003,-0.01 0.007,-0.02 0.012,-0.031c0.004,-0.01 0.008,-0.02 0.013,-0.029c0.002,-0.005 0.005,-0.012 0.009,-0.02c0.004,-0.008 0.008,-0.016 0.013,-0.024c0.004,-0.008 0.008,-0.016 0.012,-0.023c0.003,-0.007 0.006,-0.012 0.008,-0.015c0.002,-0.003 0.004,-0.006 0.006,-0.009c0.002,-0.003 0.004,-0.005 0.005,-0.006c0.003,-0.003 0.005,-0.004 0.006,-0.005c0.001,0 0.002,0 0.004,0c0.005,0 0.011,0.002 0.017,0.005c0.005,0.003 0.01,0.007 0.013,0.012c0.003,0.005 0.005,0.008 0.006,0.01c0.001,0.003 -0,0.007 -0.003,0.012l-0.008,0.018l-0.004,0.008l0.005,-0.006c0.001,-0.001 0.004,-0.004 0.007,-0.007c0.003,-0.003 0.005,-0.005 0.007,-0.008c0.009,-0.009 0.017,-0.018 0.024,-0.026c0.007,-0.007 0.011,-0.011 0.012,-0.011c0.003,0 0.006,0.001 0.011,0.004c0.004,0.002 0.007,0.004 0.009,0.007c0.007,0.005 0.01,0.011 0.01,0.018c0,0.005 -0.005,0.018 -0.014,0.041c-0.004,0.011 -0.008,0.022 -0.013,0.034c-0.005,0.013 -0.007,0.019 -0.006,0.02c0,0.001 0.003,-0.002 0.009,-0.008c0.005,-0.006 0.012,-0.013 0.019,-0.022c0.023,-0.027 0.043,-0.05 0.061,-0.07c0.018,-0.019 0.032,-0.034 0.043,-0.043c0.005,-0.004 0.008,-0.006 0.009,-0.007c0.001,0 0.004,0.001 0.009,0.002Z" style="fill-rule:nonzero;"/></g><g transform="matrix(58.5892,0,0,58.5892,19151.3,12364)"><path d="M0.24,-0.189c0.001,0.002 0.001,0.003 0.001,0.004c-0.001,0.001 -0.002,0.003 -0.005,0.006c-0.007,0.008 -0.017,0.019 -0.031,0.032c-0.013,0.013 -0.028,0.027 -0.043,0.04c-0.015,0.014 -0.031,0.026 -0.046,0.037c-0.015,0.011 -0.028,0.019 -0.039,0.022c-0.004,0.001 -0.009,0.002 -0.015,0.003c-0.007,0.001 -0.011,0 -0.014,-0.001c-0.009,-0.003 -0.017,-0.008 -0.024,-0.017c-0.007,-0.008 -0.012,-0.017 -0.014,-0.027c-0.001,-0.011 0,-0.026 0.005,-0.043c0.004,-0.017 0.012,-0.035 0.023,-0.055c0.005,-0.009 0.011,-0.019 0.018,-0.031c0.007,-0.011 0.016,-0.022 0.025,-0.033c0.009,-0.01 0.018,-0.019 0.029,-0.027c0.011,-0.008 0.021,-0.013 0.032,-0.015c0.011,-0.001 0.023,0.002 0.034,0.011c0.011,0.009 0.017,0.018 0.017,0.028c0,0.009 -0.003,0.019 -0.008,0.032c-0.005,0.012 -0.011,0.024 -0.018,0.036c-0.007,0.012 -0.015,0.023 -0.024,0.032c-0.009,0.009 -0.017,0.016 -0.024,0.019c-0.003,0.002 -0.006,0.003 -0.008,0.004c-0.002,-0 -0.005,0 -0.01,0c-0.005,0 -0.01,-0.001 -0.013,-0.002c-0.004,-0.001 -0.008,-0.004 -0.013,-0.008c-0.004,-0.004 -0.006,-0.006 -0.006,-0.005c-0.001,0.001 -0.004,0.006 -0.007,0.015c-0.004,0.008 -0.007,0.015 -0.009,0.02c-0.005,0.016 -0.008,0.029 -0.008,0.038c0,0.005 0,0.007 0.001,0.008c0.001,0.001 0.003,0 0.008,-0.001c0.011,-0.004 0.024,-0.011 0.039,-0.022c0.014,-0.012 0.03,-0.024 0.045,-0.037c0.015,-0.013 0.03,-0.026 0.043,-0.04c0.014,-0.012 0.025,-0.023 0.032,-0.031c0.002,-0.003 0.005,-0.004 0.008,-0.004c0.003,0.001 0.007,0.002 0.011,0.005c0.004,0.003 0.007,0.005 0.008,0.007Zm-0.141,-0.002c-0.001,0.003 -0.003,0.006 -0.004,0.01c-0.001,0.004 -0.002,0.008 -0.003,0.012c-0.001,0.004 -0.001,0.007 -0.002,0.01c0,0.003 0,0.004 0.001,0.004l0.002,-0.001c0.001,-0 0.002,-0.001 0.005,-0.002c0.007,-0.004 0.013,-0.01 0.019,-0.018c0.007,-0.007 0.013,-0.016 0.018,-0.025c0.006,-0.009 0.011,-0.018 0.014,-0.027c0.004,-0.009 0.007,-0.018 0.009,-0.026l-0,-0.004l-0.003,0.002c-0.003,0.002 -0.007,0.006 -0.013,0.011c-0.005,0.005 -0.011,0.011 -0.017,0.017c-0.006,0.006 -0.011,0.012 -0.016,0.017c-0.005,0.005 -0.007,0.009 -0.007,0.012c-0,0.002 -0.001,0.005 -0.003,0.008Z" style="fill-rule:nonzero;"/></g><g transform="matrix(58.5892,0,0,58.5892,19160.8,12364)"><path d="M0.238,-0.294c0.011,0.011 0.014,0.023 0.008,0.035c-0.001,0.002 -0.004,0.007 -0.008,0.014c-0.003,0.007 -0.007,0.014 -0.012,0.021c-0.019,0.031 -0.034,0.059 -0.045,0.085c-0.01,0.026 -0.02,0.055 -0.029,0.086c-0.005,0.021 -0.009,0.042 -0.012,0.062c-0.003,0.02 -0.003,0.036 -0.002,0.048c0.001,0.004 0.001,0.007 0.002,0.008c0.001,0.001 0.003,0.004 0.006,0.007c0.004,0.005 0.006,0.008 0.006,0.008c-0.001,0.001 -0.003,0.001 -0.006,0.002c-0.003,0.001 -0.005,0.002 -0.007,0.002c-0.001,-0 -0.003,-0 -0.004,-0.001c-0.002,-0.001 -0.004,-0.001 -0.006,-0.002c-0.004,-0.002 -0.008,-0.005 -0.013,-0.009c-0.005,-0.003 -0.009,-0.007 -0.012,-0.01c-0.005,-0.007 -0.009,-0.015 -0.011,-0.024c-0.002,-0.009 -0.002,-0.023 -0.001,-0.041c0.001,-0.029 0.005,-0.06 0.013,-0.091c0.007,-0.031 0.017,-0.059 0.03,-0.084l0.004,-0.008l-0.004,0.004c-0.006,0.005 -0.014,0.015 -0.025,0.028c-0.011,0.013 -0.02,0.026 -0.028,0.039c-0.005,0.007 -0.011,0.017 -0.019,0.03c-0.008,0.013 -0.014,0.024 -0.018,0.031c-0.003,0.005 -0.009,0.008 -0.016,0.008c-0.005,-0 -0.01,-0.002 -0.015,-0.007c-0.005,-0.004 -0.01,-0.009 -0.013,-0.016c-0.001,-0.003 -0.002,-0.006 -0.002,-0.007c-0.001,-0.001 -0.001,-0.005 0,-0.01c0.002,-0.014 0.006,-0.03 0.012,-0.049c0.005,-0.018 0.012,-0.036 0.02,-0.054c0.008,-0.019 0.017,-0.037 0.026,-0.053c0.009,-0.018 0.017,-0.031 0.025,-0.042c0.003,-0.005 0.006,-0.008 0.007,-0.009c0.001,-0.001 0.002,-0.001 0.005,0c0.007,0.001 0.015,0.006 0.022,0.013c0.007,0.008 0.011,0.016 0.011,0.023c0,0.003 -0.002,0.009 -0.007,0.018c-0.001,0.004 -0.003,0.008 -0.004,0.011c-0.002,0.004 -0.003,0.007 -0.004,0.008c-0.001,0.003 -0.001,0.003 0.002,0c0.003,-0.002 0.009,-0.008 0.02,-0.019c0.016,-0.016 0.031,-0.03 0.045,-0.041c0.013,-0.011 0.024,-0.019 0.031,-0.023c0.004,-0.002 0.007,-0.003 0.01,-0.002c0.007,0.002 0.013,0.006 0.018,0.011Z" style="fill-rule:nonzero;"/></g><g transform="matrix(58.5892,0,0,58.5892,19171,12364)"><path d="M0.227,-0.394c0.003,0.003 0.005,0.006 0.007,0.01c0.003,0.004 0.004,0.007 0.004,0.009l-0,0.004l-0.013,-0.001l-0.021,0l-0.008,0.001l-0.013,0.026c-0.019,0.04 -0.035,0.076 -0.049,0.109c-0.015,0.033 -0.027,0.064 -0.036,0.092c-0.001,0.001 -0.001,0.002 -0.001,0.003c0,0.001 0.001,0 0.002,-0.002l0.023,-0.029c0.016,-0.021 0.027,-0.036 0.034,-0.044c0.006,-0.008 0.01,-0.012 0.011,-0.012c0.003,-0 0.007,0.001 0.012,0.004c0.005,0.003 0.009,0.006 0.01,0.009c0.001,0.001 0.001,0.003 -0,0.004c-0.001,0.002 -0.005,0.008 -0.012,0.017c-0.006,0.009 -0.016,0.023 -0.031,0.042c-0.014,0.019 -0.029,0.04 -0.045,0.062c-0.007,0.009 -0.012,0.017 -0.016,0.022c-0.004,0.006 -0.008,0.01 -0.011,0.013c-0.003,0.003 -0.005,0.005 -0.008,0.006c-0.003,0.001 -0.006,0.002 -0.009,0.002c-0.003,0.001 -0.008,-0 -0.013,-0.003c-0.005,-0.002 -0.01,-0.006 -0.015,-0.011c-0.005,-0.005 -0.009,-0.01 -0.01,-0.013c-0.001,-0.004 -0.001,-0.011 0,-0.021c0.002,-0.01 0.005,-0.022 0.009,-0.036c0.004,-0.014 0.009,-0.03 0.014,-0.047c0.006,-0.017 0.013,-0.035 0.02,-0.053c0.003,-0.008 0.007,-0.017 0.011,-0.027c0.005,-0.01 0.009,-0.02 0.013,-0.03c0.005,-0.01 0.009,-0.02 0.013,-0.029c0.005,-0.009 0.009,-0.017 0.012,-0.024c0.003,-0.005 0.004,-0.009 0.005,-0.011c0.001,-0.001 0.001,-0.003 0.002,-0.004c-0,-0.001 -0.003,-0 -0.008,0.001c-0.012,0.004 -0.021,0.003 -0.028,-0.004c-0.002,-0.002 -0.004,-0.005 -0.006,-0.01c-0.002,-0.004 -0.003,-0.007 -0.003,-0.009c-0,-0.002 0,-0.003 0,-0.004c0.001,-0.001 0.003,-0.002 0.006,-0.003c0.005,-0.002 0.012,-0.004 0.021,-0.007c0.009,-0.002 0.018,-0.004 0.025,-0.005l0.015,-0.003l0.015,-0.028c0.007,-0.015 0.014,-0.026 0.019,-0.035c0.006,-0.009 0.01,-0.015 0.011,-0.016c0.003,-0.003 0.009,-0.002 0.016,0.002c0.008,0.004 0.015,0.01 0.02,0.017c0.005,0.007 0.007,0.012 0.007,0.017c-0.001,0.004 -0.004,0.013 -0.011,0.026l-0.007,0.016l0.006,0.002c0.004,0.001 0.008,0.002 0.011,0.005Z" style="fill-rule:nonzero;"/></g><path d="" style="fill:#fff;"/><path d="" style="fill:#fff;"/><path d="" style="fill:#fff;"/><path d="" style="fill:#fff;"/><path d="" style="fill:#fff;"/><path d="" style="fill:#fff;"/><path d="" style="fill:#fff;"/><path d="" style="fill:#fff;"/><path d="" style="fill:#fff;"/><path d="" style="fill:#fff;"/><path d="" style="fill:#fff;"/><path d="" style="fill:#fff;"/><path d="" style="fill:#fff;"/><path d="" style="fill:#fff;"/><path d="" style="fill:#fff;"/><path d="" style="fill:#fff;"/><path d="" style="fill:#fff;"/></g></g></g></svg>